<svg width="24" height="24" viewBox="0 0 24 24" fill="none" xmlns="http://www.w3.org/2000/svg">
<path d="M22.2752 5.325C21.6916 4.55124 20.8926 3.96701 19.9783 3.64556C19.6 2.74917 18.917 2.01537 18.05 1.57392C17.183 1.13247 16.1878 1.01179 15.2404 1.23323C14.348 0.438869 13.1948 0 12 0C10.8052 0 9.65206 0.438869 8.7596 1.23323C7.81212 1.01179 6.81685 1.13244 5.94973 1.57386C5.08261 2.01529 4.39947 2.74906 4.02108 3.64547C3.10689 3.96695 2.30799 4.55123 1.72459 5.325C1.0796 6.18547 0.737181 7.23503 0.750625 8.31032C0.76407 9.3856 1.13263 10.4263 1.79893 11.2703C2.46523 12.1144 3.39189 12.7146 4.43468 12.9773C5.47746 13.2401 6.57786 13.1507 7.56459 12.7232C8.26664 14.475 8.62659 16.3451 8.62497 18.2323V21.4687C8.62528 21.7422 8.73403 22.0043 8.92736 22.1976C9.1207 22.3909 9.38282 22.4997 9.65623 22.5H14.3438C14.6172 22.4997 14.8793 22.3909 15.0727 22.1976C15.266 22.0043 15.3748 21.7422 15.3751 21.4687V18.2323C15.3735 16.3451 15.7334 14.475 16.4354 12.7232C17.4222 13.151 18.5227 13.2405 19.5656 12.9779C20.6086 12.7152 21.5354 12.115 22.2017 11.2708C22.8681 10.4266 23.2366 9.38581 23.2499 8.31041C23.2632 7.235 22.9205 6.18539 22.2752 5.325ZM14.6251 18.2323V21.4687C14.625 21.5433 14.5953 21.6148 14.5426 21.6675C14.4899 21.7203 14.4184 21.7499 14.3438 21.75H9.65623C9.58166 21.7499 9.51017 21.7203 9.45744 21.6675C9.40471 21.6148 9.37505 21.5433 9.37498 21.4687V18.2323C9.37669 16.2229 8.98825 14.2322 8.23121 12.3708C8.50001 12.2005 8.75146 12.0042 8.98197 11.7848L9.77886 13.6445L10.2482 14.8179C10.4149 15.2335 10.5004 15.6772 10.5 16.125C10.5 16.2245 10.5395 16.3198 10.6098 16.3902C10.6802 16.4605 10.7755 16.5 10.875 16.5C10.9745 16.5 11.0698 16.4605 11.1402 16.3902C11.2105 16.3198 11.25 16.2245 11.25 16.125C11.2505 15.5818 11.1468 15.0436 10.9446 14.5394L10.5156 13.4668L11.0253 11.0883C11.6572 11.3039 12.3428 11.3039 12.9747 11.0883L13.4844 13.4668L13.0554 14.5394C12.8532 15.0435 12.7495 15.5818 12.75 16.125C12.75 16.2245 12.7895 16.3198 12.8599 16.3902C12.9302 16.4605 13.0256 16.5 13.125 16.5C13.2245 16.5 13.3199 16.4605 13.3902 16.3902C13.4605 16.3198 13.5 16.2245 13.5 16.125C13.4997 15.6772 13.5851 15.2335 13.7518 14.8179L14.2211 13.6445L15.018 11.7849C15.2485 12.0043 15.5 12.2005 15.7688 12.3708C15.0118 14.2322 14.6233 16.2229 14.6251 18.2323ZM10.3208 10.7964L10.0053 12.2687L9.53225 11.165C9.55878 11.1295 9.58489 11.0935 9.61058 11.0572C9.85498 10.9858 10.0934 10.8952 10.3235 10.7863C10.3227 10.7899 10.3215 10.7931 10.3208 10.7964ZM14.3896 11.0574C14.4152 11.0937 14.4413 11.1296 14.468 11.1652L13.9949 12.269L13.6794 10.7967C13.6787 10.7933 13.6776 10.7901 13.6768 10.7867C13.9068 10.8956 14.1451 10.9861 14.3895 11.0574H14.3896ZM18.3751 12.375C17.6932 12.3756 17.0219 12.2068 16.4213 11.884C15.8207 11.5611 15.3096 11.0942 14.934 10.5251C14.9333 10.524 14.9325 10.5231 14.9318 10.5221C14.6143 10.0439 14.4014 9.50396 14.3071 8.93775C14.2992 8.88892 14.2818 8.84213 14.2558 8.80007C14.2298 8.75802 14.1957 8.72152 14.1555 8.69269C14.1153 8.66385 14.0698 8.64325 14.0217 8.63207C13.9735 8.62089 13.9236 8.61934 13.8748 8.62753C13.826 8.63571 13.7793 8.65347 13.7375 8.67976C13.6956 8.70606 13.6593 8.74038 13.6307 8.78075C13.6022 8.82112 13.5819 8.86674 13.571 8.91499C13.5601 8.96324 13.5589 9.01315 13.5674 9.06187C13.6226 9.392 13.7119 9.71552 13.8339 10.0272C13.8163 10.0178 13.7986 10.009 13.7811 9.99951C13.7172 9.96472 13.6446 9.94926 13.5721 9.95502C13.4996 9.96078 13.4303 9.98751 13.3727 10.0319C12.9794 10.3353 12.4967 10.4998 12 10.4998C11.5033 10.4998 11.0206 10.3353 10.6274 10.0319C10.5698 9.98751 10.5005 9.96078 10.428 9.95502C10.3554 9.94926 10.2828 9.96472 10.2189 9.99951C10.2014 10.0089 10.1837 10.018 10.1661 10.0272C10.2881 9.71552 10.3774 9.392 10.4326 9.06187C10.4411 9.01315 10.4399 8.96324 10.429 8.91499C10.4182 8.86674 10.3979 8.82112 10.3693 8.78075C10.3407 8.74038 10.3045 8.70606 10.2626 8.67976C10.2207 8.65347 10.174 8.63571 10.1252 8.62753C10.0765 8.61934 10.0266 8.62089 9.97838 8.63207C9.93021 8.64325 9.88472 8.66385 9.84454 8.69269C9.80436 8.72152 9.77028 8.75802 9.74426 8.80007C9.71824 8.84213 9.7008 8.88892 9.69294 8.93775C9.59857 9.50396 9.38571 10.0439 9.06827 10.5221C9.06757 10.5231 9.06677 10.524 9.06607 10.5251C8.76128 10.9847 8.36742 11.3785 7.90778 11.6833C7.44815 11.988 6.93207 12.1975 6.39006 12.2994C5.84805 12.4012 5.29113 12.3934 4.75221 12.2762C4.2133 12.1591 3.70334 11.9351 3.25249 11.6175C2.80165 11.2999 2.41907 10.8951 2.12738 10.4271C1.83569 9.95905 1.64081 9.43728 1.55427 8.89262C1.46773 8.34797 1.49129 7.79149 1.62354 7.2561C1.7558 6.72071 1.99407 6.21727 2.32427 5.77556C2.7089 5.26572 3.20551 4.85105 3.77578 4.56351C3.74249 4.65149 3.72275 4.74402 3.71723 4.83792C3.71236 4.88693 3.71719 4.93641 3.73144 4.98355C3.7457 5.03069 3.7691 5.07456 3.80031 5.11265C3.83152 5.15075 3.86993 5.18232 3.91334 5.20558C3.95675 5.22883 4.00432 5.2433 4.05333 5.24817C4.06594 5.24939 4.07845 5.25004 4.09083 5.25004C4.1838 5.24994 4.27342 5.2153 4.3423 5.15285C4.41118 5.0904 4.4544 5.00459 4.46358 4.91208C4.49241 4.6226 4.55878 4.3381 4.66102 4.06575C4.67316 4.03336 4.70602 3.95208 4.70963 3.94345C5.03 3.18028 5.61966 2.56147 6.36649 2.20466C7.11333 1.84786 7.96525 1.77797 8.76025 2.00826C8.78585 2.01567 8.863 2.03845 8.88213 2.04483C9.39266 2.21457 9.85543 2.50345 10.2321 2.88754C10.2666 2.923 10.3076 2.95131 10.353 2.97084C10.3984 2.99038 10.4472 3.00075 10.4966 3.00137C10.546 3.00199 10.595 2.99284 10.6409 2.97444C10.6867 2.95605 10.7285 2.92878 10.7638 2.8942C10.7991 2.85961 10.8272 2.8184 10.8465 2.77292C10.8658 2.72744 10.8759 2.6786 10.8763 2.6292C10.8766 2.57979 10.8672 2.5308 10.8486 2.48504C10.83 2.43928 10.8025 2.39765 10.7677 2.36254C10.4282 2.01686 10.0309 1.73327 9.59356 1.52461C10.2949 1.02098 11.1365 0.750086 12 0.750086C12.8634 0.750086 13.7051 1.02098 14.4064 1.52461C13.9691 1.73326 13.5717 2.01684 13.2322 2.3625C13.1632 2.43364 13.1251 2.52922 13.1264 2.62834C13.1276 2.72746 13.1681 2.82206 13.2389 2.89145C13.3096 2.96084 13.405 2.99938 13.5042 2.99864C13.6033 2.9979 13.6981 2.95794 13.7678 2.8875C14.1446 2.5034 14.6073 2.21453 15.1179 2.04478C15.1371 2.0384 15.2142 2.01562 15.2397 2.00822C16.0586 1.77099 16.9369 1.85252 17.6981 2.2364C18.4593 2.62029 19.0469 3.27809 19.3429 4.07756C19.3531 4.10479 19.3857 4.19606 19.3986 4.23731C19.4675 4.45689 19.5137 4.68297 19.5364 4.91198C19.5456 5.00452 19.5888 5.09034 19.6577 5.15281C19.7266 5.21527 19.8162 5.2499 19.9092 5.25C19.9216 5.25 19.9341 5.24934 19.9467 5.24812C19.9957 5.24326 20.0433 5.22879 20.0867 5.20555C20.1301 5.1823 20.1685 5.15073 20.1997 5.11264C20.231 5.07455 20.2544 5.03068 20.2686 4.98355C20.2829 4.93641 20.2877 4.88693 20.2829 4.83792C20.2743 4.74899 20.2608 4.66062 20.2423 4.57322C20.8049 4.8603 21.2951 5.27144 21.6756 5.77561C22.2133 6.48823 22.5029 7.35729 22.5002 8.25C22.4989 9.34363 22.0639 10.3921 21.2906 11.1654C20.5173 11.9388 19.4688 12.3738 18.3751 12.375Z" fill="#FB6D3A"/>
<path d="M5.29688 7.96875C5.52987 7.96875 5.71875 7.77987 5.71875 7.54688C5.71875 7.31388 5.52987 7.125 5.29688 7.125C5.06388 7.125 4.875 7.31388 4.875 7.54688C4.875 7.77987 5.06388 7.96875 5.29688 7.96875Z" fill="#FB6D3A"/>
<path d="M19.4534 10.5C19.6864 10.5 19.8752 10.3111 19.8752 10.0781C19.8752 9.84513 19.6864 9.65625 19.4534 9.65625C19.2204 9.65625 19.0315 9.84513 19.0315 10.0781C19.0315 10.3111 19.2204 10.5 19.4534 10.5Z" fill="#FB6D3A"/>
<path d="M13.0781 6.46875C13.3111 6.46875 13.5 6.27987 13.5 6.04688C13.5 5.81388 13.3111 5.625 13.0781 5.625C12.8451 5.625 12.6562 5.81388 12.6562 6.04688C12.6562 6.27987 12.8451 6.46875 13.0781 6.46875Z" fill="#FB6D3A"/>
<path d="M18.0471 5.25C18.2801 5.25 18.469 5.06112 18.469 4.82812C18.469 4.59513 18.2801 4.40625 18.0471 4.40625C17.8141 4.40625 17.6252 4.59513 17.6252 4.82812C17.6252 5.06112 17.8141 5.25 18.0471 5.25Z" fill="#FB6D3A"/>
<path d="M6.04688 9.75C6.27987 9.75 6.46875 9.56112 6.46875 9.32812C6.46875 9.09513 6.27987 8.90625 6.04688 8.90625C5.81388 8.90625 5.625 9.09513 5.625 9.32812C5.625 9.56112 5.81388 9.75 6.04688 9.75Z" fill="#FB6D3A"/>
<path d="M16.0784 4.96875C16.3114 4.96875 16.5002 4.77987 16.5002 4.54688C16.5002 4.31388 16.3114 4.125 16.0784 4.125C15.8454 4.125 15.6565 4.31388 15.6565 4.54688C15.6565 4.77987 15.8454 4.96875 16.0784 4.96875Z" fill="#FB6D3A"/>
<path d="M8.20312 3.84375C8.43612 3.84375 8.625 3.65487 8.625 3.42188C8.625 3.18888 8.43612 3 8.20312 3C7.97013 3 7.78125 3.18888 7.78125 3.42188C7.78125 3.65487 7.97013 3.84375 8.20312 3.84375Z" fill="#FB6D3A"/>
<path d="M4.59375 9.375C4.85263 9.375 5.0625 9.16513 5.0625 8.90625C5.0625 8.64737 4.85263 8.4375 4.59375 8.4375C4.33487 8.4375 4.125 8.64737 4.125 8.90625C4.125 9.16513 4.33487 9.375 4.59375 9.375Z" fill="#FB6D3A"/>
<path d="M9.28125 5.25C9.54013 5.25 9.75 5.04013 9.75 4.78125C9.75 4.52237 9.54013 4.3125 9.28125 4.3125C9.02237 4.3125 8.8125 4.52237 8.8125 4.78125C8.8125 5.04013 9.02237 5.25 9.28125 5.25Z" fill="#FB6D3A"/>
<path d="M16.7815 6.75C17.0404 6.75 17.2502 6.54013 17.2502 6.28125C17.2502 6.02237 17.0404 5.8125 16.7815 5.8125C16.5226 5.8125 16.3127 6.02237 16.3127 6.28125C16.3127 6.54013 16.5226 6.75 16.7815 6.75Z" fill="#FB6D3A"/>
<path d="M11.719 7.875C11.9779 7.875 12.1877 7.66513 12.1877 7.40625C12.1877 7.14737 11.9779 6.9375 11.719 6.9375C11.4601 6.9375 11.2502 7.14737 11.2502 7.40625C11.2502 7.66513 11.4601 7.875 11.719 7.875Z" fill="#FB6D3A"/>
<path d="M20.1565 9.375C20.4154 9.375 20.6252 9.16513 20.6252 8.90625C20.6252 8.64737 20.4154 8.4375 20.1565 8.4375C19.8976 8.4375 19.6877 8.64737 19.6877 8.90625C19.6877 9.16513 19.8976 9.375 20.1565 9.375Z" fill="#FB6D3A"/>
<path d="M13.125 17.25C13.0255 17.25 12.9302 17.2895 12.8598 17.3598C12.7895 17.4302 12.75 17.5255 12.75 17.625V18.375C12.75 18.4745 12.7895 18.5698 12.8598 18.6402C12.9302 18.7105 13.0255 18.75 13.125 18.75C13.2245 18.75 13.3198 18.7105 13.3902 18.6402C13.4605 18.5698 13.5 18.4745 13.5 18.375V17.625C13.5 17.5255 13.4605 17.4302 13.3902 17.3598C13.3198 17.2895 13.2245 17.25 13.125 17.25Z" fill="#FB6D3A"/>
</svg>
