<svg width="19" height="19" viewBox="0 0 19 19" fill="none" xmlns="http://www.w3.org/2000/svg">
<path d="M18.43 7.79H9.5V11.305H14.725C14.63 12.16 14.06 13.49 12.825 14.345C12.065 14.915 10.925 15.295 9.5 15.295C7.03 15.295 4.845 13.68 4.085 11.305C3.895 10.735 3.8 10.07 3.8 9.405C3.8 8.74 3.895 8.075 4.085 7.505C4.18 7.315 4.18 7.125 4.275 7.03C5.13 5.035 7.125 3.61 9.5 3.61C11.305 3.61 12.445 4.37 13.205 5.035L15.865 2.375C14.25 0.95 12.065 0 9.5 0C5.795 0 2.565 2.09 1.045 5.225C0.38 6.555 0 7.98 0 9.5C0 11.02 0.38 12.445 1.045 13.775C2.565 16.91 5.795 19 9.5 19C12.065 19 14.25 18.145 15.77 16.72C17.575 15.105 18.62 12.635 18.62 9.69C18.62 8.93 18.525 8.36 18.43 7.79Z" fill="white"/>
</svg>
