<svg width="25" height="25" viewBox="0 0 25 25" fill="none" xmlns="http://www.w3.org/2000/svg">
<path opacity="0.4" d="M20.8748 7.10393L14.8748 2.90601C13.2394 1.76018 10.729 1.82268 9.15609 3.04143L3.93734 7.11435C2.89567 7.92685 2.07275 9.59351 2.07275 10.906V18.0935C2.07275 20.7498 4.229 22.9164 6.88525 22.9164H18.1144C20.7707 22.9164 22.9269 20.7602 22.9269 18.1039V11.0414C22.9269 9.63518 22.0207 7.90601 20.8748 7.10393Z" fill="#484C52"/>
<path d="M12.5 19.5312C12.0729 19.5312 11.7188 19.1771 11.7188 18.75V15.625C11.7188 15.1979 12.0729 14.8438 12.5 14.8438C12.9271 14.8438 13.2812 15.1979 13.2812 15.625V18.75C13.2812 19.1771 12.9271 19.5312 12.5 19.5312Z" fill="#484C52"/>
</svg>
