<svg width="14" height="14" viewBox="0 0 14 14" fill="none" xmlns="http://www.w3.org/2000/svg">
<path d="M11.2149 0.677619C10.656 0.677619 10.1199 0.899654 9.72472 1.29488C9.3295 1.69011 9.10746 2.22615 9.10746 2.78508V11.2149C9.10746 11.7739 9.3295 12.3099 9.72472 12.7051C10.1199 13.1003 10.656 13.3224 11.2149 13.3224C11.7739 13.3224 12.3099 13.1003 12.7051 12.7051C13.1003 12.3099 13.3224 11.7739 13.3224 11.2149C13.3224 10.656 13.1003 10.1199 12.7051 9.72472C12.3099 9.3295 11.7739 9.10746 11.2149 9.10746H2.78508C2.22615 9.10746 1.69011 9.3295 1.29488 9.72472C0.899654 10.1199 0.677619 10.656 0.677619 11.2149C0.677619 11.7739 0.899654 12.3099 1.29488 12.7051C1.69011 13.1003 2.22615 13.3224 2.78508 13.3224C3.34401 13.3224 3.88005 13.1003 4.27528 12.7051C4.6705 12.3099 4.89254 11.7739 4.89254 11.2149V2.78508C4.89254 2.22615 4.6705 1.69011 4.27528 1.29488C3.88005 0.899654 3.34401 0.677619 2.78508 0.677619C2.22615 0.677619 1.69011 0.899654 1.29488 1.29488C0.899654 1.69011 0.677619 2.22615 0.677619 2.78508C0.677619 3.34401 0.899654 3.88005 1.29488 4.27528C1.69011 4.6705 2.22615 4.89254 2.78508 4.89254H11.2149C11.7739 4.89254 12.3099 4.6705 12.7051 4.27528C13.1003 3.88005 13.3224 3.34401 13.3224 2.78508C13.3224 2.22615 13.1003 1.69011 12.7051 1.29488C12.3099 0.899654 11.7739 0.677619 11.2149 0.677619Z" stroke="#2AE1E1" stroke-width="1.28571" stroke-linecap="round" stroke-linejoin="round"/>
</svg>
