<svg width="25" height="25" viewBox="0 0 25 25" fill="none" xmlns="http://www.w3.org/2000/svg">
<path opacity="0.4" d="M9.24994 4.79151C8.41661 1.18734 2.98953 1.17692 2.15619 4.79151C1.66661 6.90609 3.01036 8.69776 4.17703 9.81234C5.03119 10.6144 6.37494 10.6144 7.22911 9.81234C8.39578 8.69776 9.72911 6.90609 9.24994 4.79151ZM5.73953 6.45817C5.16661 6.45817 4.69786 5.98942 4.69786 5.41651C4.69786 4.84359 5.15619 4.37484 5.72911 4.37484H5.73953C6.32286 4.37484 6.78119 4.84359 6.78119 5.41651C6.78119 5.98942 6.32286 6.45817 5.73953 6.45817Z" fill="#FF7622"/>
<path d="M6.78109 5.41667C6.78109 5.98958 6.32275 6.45833 5.73942 6.45833C5.1665 6.45833 4.69775 5.98958 4.69775 5.41667C4.69775 4.84375 5.15609 4.375 5.729 4.375H5.73942C6.32275 4.375 6.78109 4.84375 6.78109 5.41667Z" fill="#FF7622"/>
<path opacity="0.4" d="M22.8232 17.2915C21.9898 13.6873 16.5419 13.6769 15.6982 17.2915C15.2086 19.4061 16.5523 21.1978 17.7294 22.3123C18.5836 23.1144 19.9377 23.1144 20.7919 22.3123C21.969 21.1978 23.3127 19.4061 22.8232 17.2915ZM19.3023 18.9582C18.7294 18.9582 18.2607 18.4894 18.2607 17.9165C18.2607 17.3436 18.719 16.8748 19.2919 16.8748H19.3023C19.8752 16.8748 20.344 17.3436 20.344 17.9165C20.344 18.4894 19.8752 18.9582 19.3023 18.9582Z" fill="#FF7622"/>
<path d="M20.3436 17.9167C20.3436 18.4896 19.8748 18.9583 19.3019 18.9583C18.729 18.9583 18.2603 18.4896 18.2603 17.9167C18.2603 17.3437 18.7186 16.875 19.2915 16.875H19.3019C19.8748 16.875 20.3436 17.3437 20.3436 17.9167Z" fill="#FF7622"/>
<path d="M12.5002 20.5731H9.70849C8.50016 20.5731 7.44808 19.8439 7.03141 18.7189C6.60433 17.5939 6.91683 16.3543 7.82308 15.5522L16.146 8.271C16.646 7.8335 16.6564 7.23975 16.5106 6.8335C16.3543 6.42725 15.9585 5.98975 15.2918 5.98975H12.5002C12.0731 5.98975 11.7189 5.63558 11.7189 5.2085C11.7189 4.78141 12.0731 4.42725 12.5002 4.42725H15.2918C16.5002 4.42725 17.5522 5.15641 17.9689 6.28141C18.396 7.40641 18.0835 8.646 17.1772 9.44808L8.85433 16.7293C8.35433 17.1668 8.34391 17.7606 8.48974 18.1668C8.64599 18.5731 9.04183 19.0106 9.70849 19.0106H12.5002C12.9272 19.0106 13.2814 19.3647 13.2814 19.7918C13.2814 20.2189 12.9272 20.5731 12.5002 20.5731Z" fill="#FF7622"/>
</svg>
