<svg width="25" height="30" viewBox="0 0 25 30" fill="none" xmlns="http://www.w3.org/2000/svg">
<path d="M21.2858 2.22443C19.9199 0.667495 17.4506 0 14.2918 0H5.1239C4.81136 1.15725e-05 4.50908 0.111514 4.2714 0.314462C4.03372 0.517409 3.87623 0.798488 3.82724 1.10717L0.00990605 25.3177C-0.0659702 25.7951 0.303706 26.2274 0.787588 26.2274H6.44752L7.86897 17.2113L7.82486 17.4937C7.92613 16.8564 8.47118 16.3863 9.11662 16.3863H11.8062C17.0899 16.3863 21.2271 14.2402 22.4356 8.032C22.4715 7.84838 22.5026 7.66967 22.5295 7.49508C22.3769 7.4143 22.3769 7.4143 22.5295 7.49508C22.8893 5.20046 22.527 3.63853 21.2858 2.22443Z" fill="#27346A"/>
<path d="M10.0347 6.66848C10.1894 6.5948 10.3587 6.55662 10.53 6.55672H17.7175C18.5686 6.55672 19.3625 6.61211 20.0879 6.72887C20.2909 6.76123 20.4928 6.79988 20.6934 6.84474C20.9777 6.90748 21.2588 6.98427 21.5355 7.07482C21.8921 7.19393 22.2243 7.33264 22.5295 7.49508C22.8893 5.19958 22.527 3.63853 21.2858 2.22443C19.9191 0.667495 17.4506 0 14.2918 0H5.12312C4.47758 0 3.92841 0.469962 3.82724 1.10717L0.00990659 25.3168C-0.0659696 25.795 0.303706 26.2267 0.786804 26.2267H6.44752L9.3966 7.52527C9.42559 7.34145 9.49882 7.16743 9.60997 7.01818C9.72112 6.86893 9.86687 6.74892 10.0347 6.66848Z" fill="#E0D03C"/>
<path d="M22.4357 8.03191C21.2272 14.2392 17.0901 16.3862 11.8063 16.3862H9.11593C8.47049 16.3862 7.92534 16.8563 7.82505 17.4936L6.05666 28.704C5.99059 29.1218 6.3137 29.5004 6.73641 29.5004H11.5076C11.7809 29.5003 12.0452 29.4027 12.253 29.2252C12.4608 29.0476 12.5984 28.8018 12.6411 28.5318L12.6876 28.2887L13.5868 22.5895L13.6448 22.2746C13.6875 22.0046 13.8251 21.7588 14.0329 21.5813C14.2406 21.4037 14.5049 21.3061 14.7782 21.306H15.4923C20.1141 21.306 23.7332 19.4283 24.7907 13.9978C25.2322 11.7284 25.0038 9.83362 23.836 8.50275C23.4818 8.09965 23.042 7.76673 22.5295 7.49499C22.5018 7.67047 22.4717 7.84829 22.4357 8.03191Z" fill="#2790C3"/>
<path d="M21.2649 6.99088C21.0765 6.93586 20.8863 6.88714 20.6946 6.84481C20.4939 6.80068 20.292 6.76231 20.0891 6.72973C19.3628 6.61219 18.5696 6.5567 17.7177 6.5567H10.5311C10.3596 6.55631 10.1902 6.59482 10.0358 6.66934C9.86776 6.74953 9.72184 6.86947 9.61064 7.01876C9.49944 7.16806 9.42631 7.34221 9.39757 7.52613L7.87005 17.2114L7.82593 17.4938C7.92642 16.8565 8.47147 16.3864 9.11701 16.3864H11.8074C17.0911 16.3864 21.2282 14.2403 22.4367 8.03207C22.4727 7.84846 22.5029 7.67053 22.5306 7.49515C22.2246 7.3336 21.8933 7.194 21.5366 7.07568C21.4466 7.04584 21.356 7.01757 21.265 6.99088" fill="#1F264F"/>
</svg>
