<svg width="25" height="25" viewBox="0 0 25 25" fill="none" xmlns="http://www.w3.org/2000/svg">
<g filter="url(#filter0_d_20_1456)">
<path opacity="0.4" d="M20.8748 7.10442L14.8748 2.9065C13.2394 1.76067 10.729 1.82317 9.15609 3.04192L3.93734 7.11483C2.89567 7.92733 2.07275 9.594 2.07275 10.9065V18.094C2.07275 20.7503 4.229 22.9169 6.88525 22.9169H18.1144C20.7707 22.9169 22.9269 20.7607 22.9269 18.1044V11.0419C22.9269 9.63567 22.0207 7.9065 20.8748 7.10442Z" fill="#FF7622"/>
<path d="M12.5 19.5312C12.0729 19.5312 11.7188 19.1771 11.7188 18.75V15.625C11.7188 15.1979 12.0729 14.8438 12.5 14.8438C12.9271 14.8438 13.2812 15.1979 13.2812 15.625V18.75C13.2812 19.1771 12.9271 19.5312 12.5 19.5312Z" fill="#FF7622"/>
</g>
<defs>
<filter id="filter0_d_20_1456" x="-4" y="0" width="33" height="33" filterUnits="userSpaceOnUse" color-interpolation-filters="sRGB">
<feFlood flood-opacity="0" result="BackgroundImageFix"/>
<feColorMatrix in="SourceAlpha" type="matrix" values="0 0 0 0 0 0 0 0 0 0 0 0 0 0 0 0 0 0 127 0" result="hardAlpha"/>
<feOffset dy="4"/>
<feGaussianBlur stdDeviation="2"/>
<feComposite in2="hardAlpha" operator="out"/>
<feColorMatrix type="matrix" values="0 0 0 0 0 0 0 0 0 0 0 0 0 0 0 0 0 0 0.25 0"/>
<feBlend mode="normal" in2="BackgroundImageFix" result="effect1_dropShadow_20_1456"/>
<feBlend mode="normal" in="SourceGraphic" in2="effect1_dropShadow_20_1456" result="shape"/>
</filter>
</defs>
</svg>
