<svg width="16" height="18" viewBox="0 0 16 18" fill="none" xmlns="http://www.w3.org/2000/svg">
<path d="M0.800012 4.00006H2.4H15.1999" stroke="#FB6D3A" stroke-width="1.56833" stroke-linecap="round" stroke-linejoin="round"/>
<path d="M4.80003 4V2.4C4.80003 1.97566 4.9686 1.5687 5.26865 1.26864C5.56871 0.968582 5.97567 0.800012 6.40002 0.800012H9.6C10.0243 0.800012 10.4313 0.968582 10.7314 1.26864C11.0314 1.5687 11.2 1.97566 11.2 2.4V4M13.6 4V15.1999C13.6 15.6243 13.4314 16.0312 13.1314 16.3313C12.8313 16.6314 12.4243 16.7999 12 16.7999H4.00003C3.57569 16.7999 3.16872 16.6314 2.86866 16.3313C2.56861 16.0312 2.40004 15.6243 2.40004 15.1999V4H13.6Z" stroke="#FB6D3A" stroke-width="1.56833" stroke-linecap="round" stroke-linejoin="round"/>
<path d="M6.4001 8.00012V12.8001" stroke="#FB6D3A" stroke-width="1.56833" stroke-linecap="round" stroke-linejoin="round"/>
<path d="M9.60015 8.00012V12.8001" stroke="#FB6D3A" stroke-width="1.56833" stroke-linecap="round" stroke-linejoin="round"/>
</svg>
