<svg width="21" height="17" viewBox="0 0 21 17" fill="none" xmlns="http://www.w3.org/2000/svg">
<path d="M20.9198 2.01224C20.1498 2.35419 19.3227 2.5843 18.4546 2.68809C19.3412 2.15707 20.0211 1.31629 20.3413 0.313785C19.5126 0.80538 18.5937 1.16261 17.6154 1.35571C16.8325 0.521365 15.7174 0 14.4832 0C12.1129 0 10.1916 1.92213 10.1916 4.29161C10.1916 4.62792 10.2302 4.95619 10.3026 5.26917C6.73591 5.09055 3.57393 3.38163 1.45628 0.784461C1.08779 1.41847 0.876183 2.15546 0.876183 2.94314C0.876183 4.4316 1.63329 5.74547 2.78464 6.51465C2.08144 6.49212 1.41927 6.29902 0.840782 5.978C0.840782 5.9965 0.840782 6.0134 0.840782 6.0319C0.840782 8.11173 2.31959 9.8464 4.28356 10.2398C3.92392 10.338 3.54416 10.3903 3.15233 10.3903C2.87636 10.3903 2.60683 10.3629 2.34534 10.3139C2.89164 12.0188 4.47666 13.2602 6.35454 13.2948C4.88619 14.4462 3.03566 15.1325 1.02422 15.1325C0.678257 15.1325 0.336313 15.1123 0 15.0721C1.8996 16.2894 4.15483 16.9999 6.57902 16.9999C14.4735 16.9999 18.7893 10.4603 18.7893 4.78883C18.7893 4.60298 18.7852 4.41793 18.7772 4.23368C19.6164 3.62783 20.3445 2.87234 20.9198 2.01224Z" fill="white"/>
</svg>
