<svg width="17" height="16" viewBox="0 0 17 16" fill="none" xmlns="http://www.w3.org/2000/svg">
<path d="M8.2061 0.142252C8.26708 -0.0468349 8.53461 -0.0468353 8.59559 0.142252L10.4287 5.82629C10.456 5.91098 10.5349 5.9683 10.6239 5.96811L16.5962 5.95506C16.7949 5.95462 16.8776 6.20905 16.7166 6.32548L11.8772 9.82536C11.8051 9.8775 11.775 9.97026 11.8027 10.0548L13.6606 15.7308C13.7224 15.9196 13.506 16.0769 13.3455 15.9597L8.52148 12.4387C8.44961 12.3863 8.35208 12.3863 8.28021 12.4387L3.45618 15.9597C3.2957 16.0769 3.07927 15.9196 3.14108 15.7308L4.99904 10.0548C5.02672 9.97026 4.99658 9.8775 4.92448 9.82536L0.0851037 6.32548C-0.0758842 6.20905 0.00678532 5.95462 0.205462 5.95506L6.17778 5.96811C6.26675 5.9683 6.34566 5.91098 6.37297 5.82629L8.2061 0.142252Z" fill="#D9D9D9"/>
</svg>
