<svg width="19" height="19" viewBox="0 0 19 19" fill="none" xmlns="http://www.w3.org/2000/svg">
<path d="M9.50016 18.1418C14.2728 18.1418 18.1418 14.2728 18.1418 9.50016C18.1418 4.72752 14.2728 0.858529 9.50016 0.858529C4.72752 0.858529 0.858529 4.72752 0.858529 9.50016C0.858529 14.2728 4.72752 18.1418 9.50016 18.1418Z" stroke="#FB6D3A" stroke-width="1.67823" stroke-linecap="round" stroke-linejoin="round"/>
<path d="M6.9856 6.90734C7.18876 6.32979 7.58978 5.84278 8.11761 5.53257C8.64544 5.22236 9.26603 5.10896 9.86946 5.21247C10.4729 5.31597 11.0202 5.62969 11.4145 6.09807C11.8088 6.56645 12.0246 7.15926 12.0237 7.7715C12.0237 9.49983 9.43117 10.364 9.43117 10.364" stroke="#FB6D3A" stroke-width="1.67823" stroke-linecap="round" stroke-linejoin="round"/>
<path d="M9.50075 13.7784H9.50894" stroke="#FB6D3A" stroke-width="1.67823" stroke-linecap="round" stroke-linejoin="round"/>
</svg>
