<svg width="25" height="25" viewBox="0 0 25 25" fill="none" xmlns="http://www.w3.org/2000/svg">
<path d="M22.9165 6.24967V8.77051C22.9165 10.4163 21.8748 11.458 20.229 11.458H16.6665V4.17676C16.6665 3.02051 17.6144 2.08301 18.7707 2.08301C19.9061 2.09342 20.9478 2.55176 21.6978 3.30176C22.4478 4.06217 22.9165 5.10384 22.9165 6.24967Z" fill="#484C52"/>
<path opacity="0.4" d="M2.0835 7.29134V21.8747C2.0835 22.7393 3.06267 23.2288 3.75017 22.708L5.53141 21.3747C5.94808 21.0622 6.53142 21.1038 6.90642 21.4788L8.63557 23.2184C9.04182 23.6247 9.7085 23.6247 10.1148 23.2184L11.8647 21.4684C12.2293 21.1038 12.8127 21.0622 13.2189 21.3747L15.0002 22.708C15.6877 23.2184 16.6668 22.7288 16.6668 21.8747V4.16634C16.6668 3.02051 17.6043 2.08301 18.7502 2.08301H7.29183H6.25016C3.12516 2.08301 2.0835 3.94759 2.0835 6.24967V7.29134Z" fill="#484C52"/>
<path d="M12.5 10.1562H6.25C5.82292 10.1562 5.46875 9.80208 5.46875 9.375C5.46875 8.94792 5.82292 8.59375 6.25 8.59375H12.5C12.9271 8.59375 13.2812 8.94792 13.2812 9.375C13.2812 9.80208 12.9271 10.1562 12.5 10.1562Z" fill="#484C52"/>
<path d="M11.7188 14.3232H7.03125C6.60417 14.3232 6.25 13.9691 6.25 13.542C6.25 13.1149 6.60417 12.7607 7.03125 12.7607H11.7188C12.1458 12.7607 12.5 13.1149 12.5 13.542C12.5 13.9691 12.1458 14.3232 11.7188 14.3232Z" fill="#484C52"/>
</svg>
