<svg width="49" height="49" viewBox="0 0 49 49" fill="none" xmlns="http://www.w3.org/2000/svg">
<path d="M48.9999 24.4999C48.9999 38.0309 38.0309 48.9999 24.4999 48.9999C10.969 48.9999 0 38.0309 0 24.4999C0 10.969 10.969 0 24.4999 0C38.0309 0 48.9999 10.969 48.9999 24.4999Z" fill="#ECF0F4"/>
<path d="M14.1712 14.0923L34.8289 34.9105" stroke="#181C2E" stroke-width="2" stroke-linecap="round" stroke-linejoin="round"/>
<path d="M27.3169 21.9842V16.9311C27.3176 16.2271 27.0587 15.5479 26.5904 15.0254C26.1222 14.503 25.4781 14.1745 24.783 14.1037C24.088 14.033 23.3916 14.225 22.8292 14.6426C22.2668 15.0601 21.8783 15.6734 21.7393 16.3633M21.683 21.6625V24.5013C21.6835 25.0624 21.8489 25.6108 22.1585 26.0772C22.4681 26.5436 22.9078 26.9071 23.4223 27.1217C23.9367 27.3364 24.5027 27.3926 25.0488 27.2833C25.5949 27.1739 26.0966 26.904 26.4906 26.5074L21.683 21.6625Z" stroke="#181C2E" stroke-width="2" stroke-linecap="round" stroke-linejoin="round"/>
<path d="M31.073 22.6087V24.5012C31.0727 24.8915 31.0381 25.281 30.9697 25.6652M29.1951 29.1853C28.2784 30.1282 27.1031 30.7736 25.82 31.0387C24.5369 31.3038 23.2044 31.1765 21.9935 30.6731C20.7827 30.1698 19.7487 29.3133 19.0242 28.2136C18.2997 27.114 17.9177 25.8212 17.9273 24.5012V22.6087L29.1951 29.1853Z" stroke="#181C2E" stroke-width="2" stroke-linecap="round" stroke-linejoin="round"/>
<path d="M24.5002 31.1255V34.9106" stroke="#181C2E" stroke-width="2" stroke-linecap="round" stroke-linejoin="round"/>
<path d="M20.7444 34.9106H28.2562" stroke="#181C2E" stroke-width="2" stroke-linecap="round" stroke-linejoin="round"/>
</svg>
