<svg width="24" height="24" viewBox="0 0 24 24" fill="none" xmlns="http://www.w3.org/2000/svg">
<g clip-path="url(#clip0_73_1241)">
<path d="M22.7483 8.30537C22.1621 6.73002 21.1059 5.51323 19.6938 4.78638C19.4234 4.6503 19.194 4.44487 19.0291 4.19109C18.8641 3.93731 18.7695 3.64428 18.7549 3.34195L18.7488 3.11226C18.7466 3.02867 18.7165 2.9482 18.6634 2.88365C18.6102 2.81911 18.537 2.77418 18.4554 2.75601C18.3738 2.73785 18.2884 2.74748 18.2129 2.78339C18.1374 2.8193 18.076 2.87942 18.0386 2.9542L17.9358 3.15914C17.7943 3.42677 17.5843 3.65203 17.3272 3.8119C17.0701 3.97176 16.7752 4.0605 16.4726 4.06904C14.7855 4.13166 13.2447 4.87835 12.0476 6.12842C11.5194 4.91577 10.6931 3.85639 9.64555 3.04881C8.59802 2.24123 7.36328 1.71167 6.05615 1.5094L1.18233 0.754421C1.11948 0.744684 1.05519 0.751092 0.995497 0.773041C0.935807 0.79499 0.882679 0.831759 0.84111 0.879891C0.799541 0.928024 0.770896 0.985937 0.757868 1.04819C0.744841 1.11044 0.747859 1.17498 0.766638 1.23574L2.22356 5.94753C2.82598 7.89616 4.16337 9.5337 5.95237 10.5132C5.57262 10.6806 5.20678 10.878 4.85831 11.1034C3.44817 12.018 2.49004 13.3135 2.08753 14.8499C2.01345 15.1434 1.86275 15.412 1.65084 15.6281C1.43893 15.8443 1.17342 16.0004 0.881435 16.0803L0.658966 16.1361C0.577796 16.1563 0.50573 16.2031 0.45423 16.2691C0.402731 16.335 0.374756 16.4163 0.374756 16.4999C0.374756 16.5836 0.402731 16.6648 0.45423 16.7308C0.50573 16.7967 0.577796 16.8435 0.658966 16.8638L0.881435 16.9195C1.17341 16.9995 1.43892 17.1555 1.65083 17.3717C1.86274 17.5879 2.01344 17.8564 2.08753 18.1499C2.49004 19.6863 3.44817 20.9818 4.85831 21.8964C6.22364 22.782 7.91512 23.25 9.7499 23.25C12.9021 23.25 15.5158 21.907 16.7846 19.6935C16.7915 19.6935 16.7986 19.6941 16.8053 19.6941C16.9297 19.6941 17.0538 19.684 17.1766 19.664C20.0114 19.202 22.2451 16.7919 23.0062 13.3742C23.4051 11.5833 23.3159 9.83051 22.7483 8.30537ZM11.4988 6.76813C11.058 7.34571 10.691 7.97598 10.4062 8.64437L10.0987 8.37887L10.1768 4.56901C10.7472 5.21581 11.1952 5.96098 11.4988 6.76813ZM3.26175 6.56929L6.1305 5.94294L7.16845 6.83929L3.7207 7.41919C3.54859 7.14664 3.39526 6.86268 3.26175 6.56929ZM3.97894 4.08488L2.51676 4.35676L1.86942 2.2632L3.97894 4.08488ZM2.35959 1.69554L4.52498 2.03103L4.46911 3.51727L2.35959 1.69554ZM2.94009 5.72595L2.73975 5.07803L4.70583 4.71269L5.42086 5.33023L2.98481 5.86212C2.96976 5.81698 2.9542 5.77165 2.94009 5.72595ZM7.7302 2.7763L7.65853 6.27167L6.62058 5.37532L6.82251 2.44602C7.13224 2.53534 7.4355 2.64569 7.7302 2.7763ZM8.47256 3.1582C8.81421 3.36095 9.13825 3.592 9.44128 3.84891L9.36159 7.7423L8.39597 6.90824L8.47256 3.1582ZM6.08254 2.27497L5.91108 4.76256L5.196 4.14502L5.271 2.14667L5.94131 2.25055C5.98861 2.25786 6.03553 2.26667 6.08254 2.27497ZM4.20665 8.09804L7.90547 7.47591L8.87109 8.30992L5.0309 8.95586C4.73265 8.69347 4.45693 8.40653 4.20665 8.09804ZM5.85136 9.57846L9.60839 8.94653L10.1212 9.38941C10.0809 9.5092 10.0427 9.6306 10.0066 9.75364C9.92133 9.75167 9.83597 9.74984 9.7499 9.74984C8.79432 9.74524 7.84324 9.88106 6.92714 10.153C6.55267 9.9928 6.19274 9.80058 5.85136 9.57846ZM5.26645 11.7327C5.80796 11.3845 6.3931 11.1093 7.00669 10.9144C7.01765 10.9114 7.0283 10.9076 7.03894 10.9036C7.91655 10.6308 8.83089 10.4947 9.7499 10.4998C12.9381 10.4998 15.5093 11.9758 16.4601 14.3517C16.5842 14.6574 16.6065 14.995 16.5236 15.3145C16.4407 15.6339 16.2571 15.9181 15.9999 16.1249H15.6219C15.721 15.8435 15.7633 15.5452 15.7462 15.2473C15.7291 14.9495 15.653 14.658 15.5223 14.3897C15.3916 14.1215 15.2089 13.882 14.9848 13.6849C14.7608 13.4879 14.4998 13.3374 14.2171 13.2421C13.8691 12.77 13.3416 12.3967 12.7163 12.183C12.3408 12.0534 11.9452 11.992 11.548 12.0017C11.0536 11.528 10.3021 11.2499 9.49631 11.2499C8.67201 11.2499 7.90725 11.5396 7.41347 12.0319C7.12222 12.0582 6.83562 12.1223 6.5609 12.2225C5.60864 12.5677 4.91404 13.2731 4.73095 14.0593C4.3272 14.2326 3.98334 14.5208 3.74222 14.8881C3.50109 15.2554 3.37335 15.6855 3.3749 16.1249H2.21269C2.50052 15.8192 2.70696 15.4462 2.81306 15.0399C3.16739 13.6874 4.01573 12.5436 5.26645 11.7327ZM8.51489 19.2349L8.14833 18.8682C7.83527 18.5541 7.41354 18.3721 6.97022 18.36L5.26223 18.3037C5.23591 18.303 5.20958 18.3049 5.18367 18.3096C5.18133 18.3088 5.17898 18.3076 5.17678 18.3069C4.87121 18.2123 4.60408 18.0221 4.41472 17.7644C4.22535 17.5066 4.12376 17.1948 4.1249 16.8749H14.7996C14.9301 17.1015 14.9992 17.3582 14.9999 17.6197C15.0006 17.8812 14.9329 18.1383 14.8036 18.3656L12.462 18.3715C12.1402 18.3717 11.8249 18.4618 11.5515 18.6315C11.2781 18.8012 11.0575 19.0438 10.9145 19.332C10.892 19.3761 10.8785 19.4242 10.8747 19.4735C10.8709 19.5229 10.8769 19.5725 10.8924 19.6195C10.9078 19.6665 10.9325 19.71 10.9648 19.7475C10.9972 19.7849 11.0366 19.8156 11.0809 19.8377C11.1251 19.8599 11.1733 19.873 11.2227 19.8764C11.2721 19.8799 11.3217 19.8735 11.3685 19.8576C11.4154 19.8418 11.4587 19.8169 11.4959 19.7842C11.5331 19.7516 11.5635 19.7119 11.5853 19.6674C11.6665 19.5037 11.7918 19.3658 11.9471 19.2694C12.1024 19.1729 12.2815 19.1217 12.4643 19.1215L13.7858 19.1181C13.7393 19.1469 13.6997 19.1856 13.6697 19.2313C13.4202 19.6133 12.9843 19.9325 12.4736 20.107C12.1397 20.2238 11.7849 20.2691 11.4324 20.2398C11.3732 20.2343 11.3135 20.2429 11.2582 20.2649C11.203 20.287 11.1538 20.3219 11.1147 20.3668C10.7743 20.7572 10.1542 20.9996 9.49631 20.9996C8.83275 20.9996 8.20992 20.754 7.87087 20.3587C7.83724 20.3195 7.79587 20.2877 7.74935 20.2652C7.70283 20.2427 7.65217 20.2301 7.60055 20.2281C7.33267 20.2169 7.06817 20.1641 6.81647 20.0718C6.2535 19.8677 5.79394 19.4846 5.57395 19.064L6.94739 19.1092C7.19977 19.1158 7.43994 19.2192 7.61822 19.398L7.98478 19.7646C8.01945 19.8 8.06082 19.8283 8.10648 19.8476C8.15214 19.867 8.20119 19.8771 8.25079 19.8774C8.30038 19.8777 8.34955 19.8681 8.39542 19.8493C8.4413 19.8304 8.48299 19.8027 8.51806 19.7676C8.55313 19.7325 8.5809 19.6909 8.59976 19.645C8.61862 19.5991 8.62819 19.5499 8.62791 19.5003C8.62764 19.4507 8.61753 19.4017 8.59817 19.356C8.57881 19.3104 8.55058 19.269 8.51512 19.2343L8.51489 19.2349ZM5.17678 14.693C5.17922 14.6922 5.18147 14.691 5.18386 14.6902C5.20551 14.6941 5.22747 14.6961 5.24948 14.6962H5.26204L6.9683 14.64C7.41231 14.6282 7.83482 14.4463 8.14842 14.1317L8.51498 13.7651C8.55044 13.7304 8.57867 13.6891 8.59803 13.6434C8.61739 13.5977 8.6275 13.5487 8.62777 13.4991C8.62805 13.4495 8.61848 13.4003 8.59962 13.3544C8.58076 13.3086 8.55299 13.2669 8.51792 13.2318C8.48284 13.1968 8.44116 13.169 8.39528 13.1501C8.34941 13.1313 8.30024 13.1217 8.25065 13.122C8.20105 13.1223 8.152 13.1324 8.10634 13.1518C8.06068 13.1712 8.01931 13.1994 7.98464 13.2349L7.61808 13.6014C7.43931 13.7805 7.19843 13.884 6.94542 13.8903L5.57386 13.9355C5.79389 13.515 6.25354 13.1318 6.81637 12.9276C7.06807 12.8353 7.33258 12.7825 7.60045 12.7713C7.65208 12.7693 7.70274 12.7567 7.74925 12.7342C7.79577 12.7118 7.83715 12.6799 7.87078 12.6407C8.20992 12.2454 8.83275 11.9999 9.49631 11.9999C10.1542 11.9999 10.7743 12.2424 11.1147 12.6327C11.1538 12.6775 11.203 12.7123 11.2583 12.7344C11.3135 12.7565 11.3732 12.7651 11.4324 12.7596C11.7849 12.7304 12.1397 12.7757 12.4736 12.8925C12.9843 13.067 13.4202 13.3862 13.6697 13.7682C13.6997 13.8139 13.7393 13.8525 13.7858 13.8814L12.4649 13.878C12.282 13.8778 12.1028 13.8266 11.9474 13.7302C11.792 13.6337 11.6666 13.4958 11.5853 13.332C11.5403 13.2439 11.4624 13.1771 11.3684 13.1461C11.2744 13.1152 11.172 13.1227 11.0835 13.167C10.995 13.2112 10.9276 13.2887 10.8959 13.3824C10.8643 13.4762 10.8709 13.5786 10.9145 13.6675C11.0576 13.9558 11.2783 14.1984 11.5518 14.3681C11.8252 14.5378 12.1406 14.6278 12.4625 14.628L14.8036 14.6339C14.9329 14.8612 15.0006 15.1183 14.9999 15.3798C14.9992 15.6412 14.9301 15.898 14.7996 16.1245L4.1249 16.1249C4.12376 15.8051 4.22535 15.4933 4.41472 15.2355C4.60408 14.9777 4.87121 14.7875 5.17678 14.693ZM9.7499 22.5C8.0603 22.5 6.50995 22.0737 5.26645 21.2672C4.01573 20.4562 3.16739 19.3125 2.81306 17.9599C2.70696 17.5537 2.50052 17.1806 2.21269 16.8749H3.3749C3.37335 17.3143 3.50109 17.7444 3.74222 18.1117C3.98334 18.479 4.3272 18.7673 4.73095 18.9405C4.91404 19.7267 5.60864 20.4322 6.5609 20.7773C6.83562 20.8776 7.12222 20.9416 7.41347 20.9679C7.90701 21.4602 8.67201 21.75 9.49631 21.75C10.3021 21.75 11.0536 21.4719 11.5478 20.9982C11.945 21.0081 12.3406 20.9468 12.7162 20.8172C13.3414 20.6035 13.869 20.2301 14.2169 19.7581C14.4997 19.6628 14.7607 19.5122 14.9848 19.3152C15.2089 19.1182 15.3916 18.8786 15.5223 18.6103C15.6531 18.3421 15.7292 18.0505 15.7463 17.7526C15.7634 17.4547 15.7211 17.1564 15.6219 16.8749H15.9999C16.2571 17.0818 16.4407 17.366 16.5236 17.6854C16.6065 18.0048 16.5842 18.3424 16.4601 18.6482C15.5093 21.0241 12.9381 22.5 9.7499 22.5ZM22.2742 13.2112C21.5912 16.278 19.639 18.4472 17.1653 18.9034C17.2637 18.6509 17.317 18.383 17.3226 18.1121L18.1939 17.1046C18.4053 16.86 18.6038 16.6044 18.7885 16.339C18.8448 16.2574 18.8664 16.1568 18.8487 16.0592C18.8309 15.9616 18.7752 15.8751 18.6938 15.8185C18.6124 15.7618 18.5119 15.7398 18.4143 15.7571C18.3166 15.7744 18.2298 15.8296 18.1728 15.9108C18.0031 16.1545 17.8208 16.3892 17.6266 16.6139L17.1413 17.1749C17.0349 16.9253 16.8848 16.6967 16.6979 16.4999C16.9992 16.1821 17.2026 15.7842 17.2839 15.3539C17.3652 14.9235 17.3209 14.4789 17.1564 14.073C16.9994 13.6816 16.8022 13.3075 16.568 12.9568L17.264 9.83136C17.2751 9.78315 17.2765 9.73322 17.2682 9.68445C17.2599 9.63568 17.2421 9.58903 17.2157 9.54719C17.1893 9.50534 17.1549 9.46914 17.1145 9.44065C17.074 9.41217 17.0283 9.39197 16.98 9.38121C16.9318 9.37046 16.8818 9.36936 16.8331 9.37799C16.7844 9.38662 16.7379 9.40481 16.6962 9.43149C16.6546 9.45818 16.6186 9.49285 16.5904 9.53349C16.5622 9.57414 16.5423 9.61996 16.5319 9.66832L15.9694 12.1949C15.2298 11.3891 14.2709 10.7584 13.1553 10.3396C13.376 9.67562 13.6783 9.04158 14.0553 8.45204C14.0818 8.41055 14.0999 8.36424 14.1086 8.31576C14.1172 8.26727 14.1162 8.21755 14.1056 8.16945C14.0951 8.12135 14.0751 8.0758 14.0469 8.0354C14.0188 7.99501 13.9829 7.96056 13.9414 7.93402C13.8999 7.90748 13.8536 7.88938 13.8051 7.88074C13.7566 7.8721 13.7069 7.87309 13.6588 7.88367C13.6107 7.89424 13.5652 7.91418 13.5248 7.94236C13.4844 7.97054 13.4499 8.00639 13.4234 8.04788C13.0124 8.69097 12.6829 9.38264 12.4425 10.107C11.8973 9.9557 11.3399 9.85281 10.7767 9.79953C11.7054 6.85368 13.9148 4.91467 16.5006 4.81867C17.1205 4.79722 17.71 4.5451 18.1537 4.1117C18.3716 4.69244 18.7985 5.17092 19.3507 5.45341C20.5938 6.09322 21.5257 7.1699 22.0456 8.56708C22.5623 9.95609 22.6414 11.562 22.2742 13.2112Z" fill="#FB6D3A"/>
<path d="M17.7311 6.00896C17.634 5.98735 17.5323 6.00519 17.4484 6.05855C17.3645 6.11191 17.3052 6.19642 17.2836 6.29349L16.866 8.1685C16.8549 8.2167 16.8535 8.26663 16.8617 8.3154C16.87 8.36417 16.8879 8.41082 16.9143 8.45266C16.9407 8.4945 16.9751 8.53071 17.0155 8.5592C17.056 8.58768 17.1016 8.60788 17.1499 8.61864C17.1982 8.62939 17.2481 8.63048 17.2969 8.62185C17.3456 8.61322 17.3921 8.59504 17.4337 8.56835C17.4754 8.54167 17.5114 8.507 17.5396 8.46636C17.5677 8.42571 17.5876 8.37989 17.598 8.33153L18.0156 6.45652C18.0263 6.40845 18.0274 6.35875 18.0189 6.31024C18.0104 6.26173 17.9925 6.21537 17.966 6.17381C17.9396 6.13225 17.9053 6.0963 17.8649 6.06802C17.8246 6.03973 17.7791 6.01966 17.7311 6.00896Z" fill="#FB6D3A"/>
<path d="M15.901 5.34915L14.9307 6.24634C14.7156 6.44523 14.5077 6.65668 14.313 6.87474C14.2799 6.91143 14.2544 6.9543 14.238 7.00087C14.2215 7.04744 14.2144 7.0968 14.2171 7.14612C14.2198 7.19543 14.2322 7.24374 14.2536 7.28825C14.275 7.33277 14.305 7.37262 14.3418 7.40551C14.3786 7.43841 14.4216 7.4637 14.4683 7.47994C14.5149 7.49617 14.5643 7.50304 14.6136 7.50013C14.6629 7.49723 14.7112 7.48461 14.7556 7.46301C14.8 7.4414 14.8397 7.41124 14.8724 7.37424C15.0513 7.17399 15.2422 6.97974 15.4396 6.79702L16.4099 5.89984C16.4466 5.86655 16.4764 5.82632 16.4974 5.78147C16.5185 5.73663 16.5305 5.68805 16.5326 5.63855C16.5348 5.58906 16.5272 5.53962 16.5101 5.49309C16.4931 5.44657 16.467 5.40388 16.4334 5.3675C16.3997 5.33112 16.3592 5.30177 16.3142 5.28113C16.2691 5.2605 16.2204 5.249 16.1709 5.24729C16.1214 5.24559 16.072 5.25371 16.0257 5.27119C15.9793 5.28867 15.9369 5.31517 15.9008 5.34915H15.901Z" fill="#FB6D3A"/>
<path d="M20.063 11.7326C20.0143 11.7254 19.9647 11.7278 19.9169 11.7397C19.8691 11.7516 19.8242 11.7729 19.7846 11.8022C19.745 11.8315 19.7116 11.8683 19.6863 11.9106C19.6609 11.9528 19.6442 11.9996 19.6369 12.0483L19.5958 12.3243C19.464 13.2111 19.1918 14.0712 18.7896 14.8725C18.7668 14.9166 18.7529 14.9648 18.7488 15.0143C18.7447 15.0637 18.7505 15.1135 18.7659 15.1608C18.7812 15.208 18.8058 15.2517 18.8381 15.2894C18.8705 15.3271 18.91 15.3579 18.9544 15.3802C18.9988 15.4025 19.0472 15.4157 19.0967 15.4191C19.1462 15.4225 19.196 15.4161 19.243 15.4001C19.29 15.3842 19.3334 15.3591 19.3706 15.3262C19.4079 15.2934 19.4382 15.2534 19.4599 15.2088C19.8978 14.3365 20.1941 13.4001 20.3375 12.4347L20.3787 12.1588C20.3933 12.0604 20.3683 11.9603 20.3091 11.8803C20.2499 11.8004 20.1614 11.7473 20.063 11.7326Z" fill="#FB6D3A"/>
<path d="M20.358 9.31345C20.3367 9.18314 20.3123 9.05175 20.2854 8.92289C20.2755 8.87453 20.2561 8.82859 20.2284 8.78772C20.2007 8.74685 20.1653 8.71185 20.124 8.68473C20.0828 8.6576 20.0366 8.63889 19.9881 8.62966C19.9396 8.62043 19.8897 8.62087 19.8414 8.63094C19.7931 8.64102 19.7472 8.66054 19.7065 8.68838C19.6657 8.71622 19.6308 8.75184 19.6039 8.79319C19.5769 8.83454 19.5584 8.8808 19.5493 8.92933C19.5403 8.97786 19.5409 9.0277 19.5512 9.07599C19.5759 9.1943 19.5983 9.31505 19.6179 9.43481C19.6762 9.79127 19.7117 10.1511 19.7242 10.5121C19.7275 10.6092 19.7684 10.7012 19.8383 10.7688C19.9081 10.8363 20.0015 10.8741 20.0987 10.8742H20.1118C20.2112 10.8708 20.3052 10.828 20.373 10.7553C20.4409 10.6827 20.4771 10.586 20.4737 10.4866C20.4601 10.0936 20.4215 9.7019 20.3581 9.31383L20.358 9.31345Z" fill="#FB6D3A"/>
<path d="M19.2514 7.9994C19.2677 8.04587 19.293 8.08868 19.3258 8.12537C19.3587 8.16207 19.3985 8.19193 19.4429 8.21326C19.4873 8.23459 19.5354 8.24697 19.5846 8.24968C19.6338 8.25239 19.683 8.2454 19.7295 8.22908C19.776 8.21277 19.8188 8.18746 19.8555 8.15461C19.8922 8.12175 19.922 8.08199 19.9434 8.03759C19.9647 7.99319 19.9771 7.94503 19.9798 7.89585C19.9825 7.84667 19.9755 7.79743 19.9592 7.75096C19.9099 7.61033 19.8564 7.46971 19.8002 7.33133L19.3537 6.23385C19.3159 6.14223 19.2433 6.06931 19.1519 6.03103C19.0604 5.99276 18.9576 5.99225 18.8657 6.0296C18.7739 6.06696 18.7006 6.13915 18.6619 6.23039C18.6232 6.32163 18.6221 6.4245 18.659 6.5165L19.1055 7.61399C19.1568 7.74088 19.2059 7.87049 19.2514 7.9994Z" fill="#FB6D3A"/>
<path d="M8.51494 15.6402L8.73464 15.4205C9.00388 15.1513 9.36904 15 9.74979 15C10.1305 15 10.4957 15.1513 10.7649 15.4205L10.9846 15.6402C11.0194 15.675 11.0608 15.7026 11.1063 15.7214C11.1518 15.7403 11.2005 15.75 11.2498 15.75C11.299 15.75 11.3478 15.7403 11.3933 15.7214C11.4388 15.7026 11.4801 15.675 11.5149 15.6402C11.5498 15.6053 11.5774 15.564 11.5962 15.5185C11.6151 15.473 11.6248 15.4242 11.6248 15.375C11.6248 15.3257 11.6151 15.277 11.5962 15.2315C11.5774 15.186 11.5498 15.1446 11.5149 15.1098L11.2953 14.8902C10.8854 14.4803 10.3295 14.25 9.74979 14.25C9.17012 14.25 8.61419 14.4803 8.2043 14.8902L7.98459 15.1099C7.91427 15.1802 7.87476 15.2756 7.87476 15.375C7.87476 15.4745 7.91427 15.5699 7.98459 15.6402C8.05492 15.7105 8.15031 15.75 8.24977 15.75C8.34922 15.75 8.44461 15.7105 8.51494 15.6402Z" fill="#FB6D3A"/>
<path d="M11.2952 18.1099L11.5149 17.8902C11.5498 17.8554 11.5774 17.814 11.5962 17.7685C11.6151 17.723 11.6248 17.6743 11.6248 17.625C11.6248 17.5758 11.6151 17.527 11.5962 17.4815C11.5774 17.436 11.5498 17.3947 11.5149 17.3598C11.4801 17.325 11.4388 17.2974 11.3933 17.2785C11.3478 17.2597 11.299 17.25 11.2498 17.25C11.2005 17.25 11.1518 17.2597 11.1063 17.2785C11.0608 17.2974 11.0194 17.325 10.9846 17.3598L10.7649 17.5795C10.4957 17.8488 10.1305 18 9.74974 18C9.36899 18 9.00383 17.8488 8.73459 17.5795L8.51494 17.3599C8.44461 17.2896 8.34922 17.25 8.24977 17.25C8.15031 17.25 8.05492 17.2896 7.98459 17.3599C7.91427 17.4302 7.87476 17.5256 7.87476 17.6251C7.87476 17.7245 7.91427 17.8199 7.98459 17.8902L8.20425 18.1099C8.61414 18.5198 9.17007 18.75 9.74974 18.75C10.3294 18.75 10.8853 18.5198 11.2952 18.1099Z" fill="#FB6D3A"/>
</g>
<defs>
<clipPath id="clip0_73_1241">
<rect width="24" height="24" fill="white"/>
</clipPath>
</defs>
</svg>
