<svg width="16" height="16" viewBox="0 0 16 16" fill="none" xmlns="http://www.w3.org/2000/svg">
<path d="M9.39261 9.39272C9.2122 9.58633 8.99463 9.74163 8.7529 9.84934C8.51116 9.95705 8.25021 10.015 7.98561 10.0196C7.721 10.0243 7.45817 9.97563 7.21279 9.87651C6.9674 9.7774 6.7445 9.62987 6.55737 9.44274C6.37023 9.25561 6.22271 9.0327 6.1236 8.78732C6.02448 8.54194 5.97581 8.2791 5.98047 8.0145C5.98514 7.7499 6.04306 7.48894 6.15077 7.24721C6.25848 7.00548 6.41377 6.78791 6.60739 6.6075M11.9019 11.902C10.779 12.758 9.41173 13.2322 8 13.2552C3.40176 13.2552 0.774194 8.00011 0.774194 8.00011C1.59129 6.47736 2.72459 5.14697 4.09806 4.09817L11.9019 11.902ZM6.62053 2.90263C7.07269 2.79679 7.53562 2.74388 8 2.74498C12.5982 2.74498 15.2258 8.00011 15.2258 8.00011C14.8271 8.74608 14.3515 9.44838 13.8069 10.0956L6.62053 2.90263Z" stroke="#A0A5BA" stroke-width="1.5" stroke-linecap="round" stroke-linejoin="round"/>
<path d="M0.774194 0.774194L15.2258 15.2258" stroke="#A0A5BA" stroke-width="1.5" stroke-linecap="round" stroke-linejoin="round"/>
</svg>
