<svg width="21" height="20" viewBox="0 0 21 20" fill="none" xmlns="http://www.w3.org/2000/svg">
<path d="M10.2527 1.17929C10.3144 0.987942 10.5852 0.987942 10.6469 1.17929L12.7159 7.59485C12.7436 7.68055 12.8234 7.73856 12.9134 7.73836L19.6544 7.72363C19.8554 7.72319 19.9391 7.98066 19.7762 8.09848L14.314 12.0488C14.241 12.1015 14.2105 12.1954 14.2385 12.281L16.3356 18.6874C16.3982 18.8785 16.1791 19.0376 16.0167 18.9191L10.5719 14.945C10.4991 14.8919 10.4005 14.8919 10.3277 14.945L4.88285 18.9191C4.72046 19.0376 4.50144 18.8785 4.56398 18.6874L6.66106 12.281C6.68907 12.1954 6.65857 12.1015 6.58561 12.0488L1.12342 8.09848C0.960509 7.98066 1.04417 7.72319 1.24522 7.72363L7.98615 7.73836C8.07619 7.73856 8.15604 7.68055 8.18368 7.59485L10.2527 1.17929Z" stroke="#FF7622" stroke-width="2"/>
</svg>
