<svg width="16" height="15" viewBox="0 0 16 15" fill="none" xmlns="http://www.w3.org/2000/svg">
<path d="M7.62929 1.15483C7.68972 0.967449 7.95483 0.967449 8.01526 1.15483L9.47526 5.68188C9.50232 5.7658 9.58051 5.82261 9.66869 5.82241L14.4253 5.81202C14.6222 5.81159 14.7041 6.06372 14.5446 6.1791L10.6903 8.96657C10.6188 9.01824 10.589 9.11016 10.6164 9.19396L12.0962 13.7146C12.1574 13.9017 11.9429 14.0575 11.7839 13.9415L7.94182 11.1372C7.8706 11.0852 7.77395 11.0852 7.70273 11.1372L3.86063 13.9415C3.70161 14.0575 3.48713 13.9017 3.54838 13.7146L5.02815 9.19396C5.05558 9.11016 5.02572 9.01824 4.95427 8.96657L1.09995 6.1791C0.940417 6.06372 1.02234 5.81159 1.21922 5.81202L5.97587 5.82241C6.06404 5.82261 6.14223 5.7658 6.1693 5.68188L7.62929 1.15483Z" stroke="#FF7622" stroke-width="2"/>
</svg>
