<svg width="21" height="20" viewBox="0 0 21 20" fill="none" xmlns="http://www.w3.org/2000/svg">
<path d="M10.2529 1.17929C10.3146 0.987942 10.5853 0.987942 10.647 1.17929L12.716 7.59485C12.7437 7.68055 12.8235 7.73856 12.9136 7.73836L19.6545 7.72363C19.8556 7.72319 19.9392 7.98066 19.7763 8.09848L14.3141 12.0488C14.2412 12.1015 14.2107 12.1954 14.2387 12.281L16.3357 18.6874C16.3983 18.8785 16.1793 19.0376 16.0169 18.9191L10.572 14.945C10.4993 14.8919 10.4006 14.8919 10.3278 14.945L4.88298 18.9191C4.72058 19.0376 4.50156 18.8785 4.56411 18.6874L6.66119 12.281C6.6892 12.1954 6.6587 12.1015 6.58574 12.0488L1.12355 8.09848C0.960636 7.98066 1.04429 7.72319 1.24535 7.72363L7.98628 7.73836C8.07632 7.73856 8.15617 7.68055 8.1838 7.59485L10.2529 1.17929Z" stroke="#FF7622" stroke-width="2"/>
</svg>
