<svg width="115" height="114" viewBox="0 0 115 114" fill="none" xmlns="http://www.w3.org/2000/svg">
<path opacity="0.05" d="M115 57C115 88.4802 89.2564 114 57.5 114C25.7436 114 0 88.4802 0 57C0 25.5198 25.7436 0 57.5 0C89.2564 0 115 25.5198 115 57Z" fill="#FF7622"/>
<path opacity="0.1" d="M100 57C100 80.196 80.9721 99 57.5 99C34.0279 99 15 80.196 15 57C15 33.804 34.0279 15 57.5 15C80.9721 15 100 33.804 100 57Z" fill="#FF7622"/>
<path d="M87.8302 56.888C87.8302 73.563 74.3125 87.0807 57.6375 87.0807C40.9625 87.0807 27.4448 73.563 27.4448 56.888C27.4448 40.213 40.9625 26.6953 57.6375 26.6953C74.3125 26.6953 87.8302 40.213 87.8302 56.888Z" fill="#FF3434"/>
<path d="M70.1579 63.0475V66.8037C70.1593 67.1524 70.0879 67.4975 69.9482 67.817C69.8085 68.1365 69.6036 68.4233 69.3467 68.6591C69.0897 68.8948 68.7864 69.0743 68.456 69.186C68.1257 69.2977 67.7757 69.3392 67.4284 69.3078C63.5756 68.8892 59.8748 67.5726 56.6232 65.464C53.598 63.5417 51.0331 60.9768 49.1108 57.9516C46.9948 54.6853 45.678 50.9664 45.267 47.0963C45.2357 46.7501 45.2769 46.4011 45.3878 46.0717C45.4988 45.7422 45.6771 45.4394 45.9115 45.1827C46.1459 44.9259 46.4312 44.7208 46.7492 44.5803C47.0672 44.4399 47.4109 44.3671 47.7586 44.3668H51.5148C52.1224 44.3608 52.7115 44.576 53.1722 44.9722C53.6329 45.3685 53.9338 45.9187 54.0189 46.5204C54.1774 47.7224 54.4714 48.9027 54.8953 50.0386C55.0638 50.4868 55.1002 50.9738 55.0004 51.442C54.9005 51.9103 54.6685 52.3401 54.3319 52.6805L52.7418 54.2706C54.5242 57.4052 57.1195 60.0006 60.2541 61.7829L61.8442 60.1928C62.1847 59.8562 62.6145 59.6242 63.0827 59.5243C63.5509 59.4245 64.0379 59.4609 64.4861 59.6294C65.622 60.0533 66.8023 60.3473 68.0044 60.5058C68.6126 60.5916 69.168 60.898 69.5651 61.3666C69.9622 61.8353 70.1731 62.4335 70.1579 63.0475Z" stroke="white" stroke-width="2" stroke-linecap="round" stroke-linejoin="round"/>
</svg>
