<svg width="87" height="74" viewBox="0 0 87 74" fill="none" xmlns="http://www.w3.org/2000/svg">
<path d="M1 10.62C1 5.30702 5.30702 1 10.62 1H76.38C81.693 1 86 5.30702 86 10.62V63.38C86 68.693 81.693 73 76.38 73H10.62C5.30703 73 1 68.693 1 63.38V10.62Z" stroke="#FF7622" stroke-width="2"/>
<path d="M58.5823 49.4464V49.5101H58.6424C58.6536 49.5103 58.6648 49.5075 58.6746 49.502C58.6785 49.4993 58.6816 49.4956 58.6838 49.4913C58.6859 49.4871 58.6869 49.4824 58.6867 49.4776C58.6869 49.473 58.6859 49.4684 58.6837 49.4642C58.6816 49.4601 58.6785 49.4565 58.6746 49.4539C58.6649 49.4481 58.6537 49.4453 58.6424 49.4458L58.5823 49.4464ZM58.643 49.4013C58.6688 49.3998 58.6943 49.4071 58.7152 49.4221C58.7236 49.4288 58.7302 49.4375 58.7346 49.4473C58.739 49.4571 58.741 49.4677 58.7405 49.4784C58.7408 49.4876 58.7392 49.4968 58.7357 49.5054C58.7322 49.5139 58.7269 49.5216 58.7202 49.528C58.704 49.5418 58.6838 49.5502 58.6625 49.5517L58.743 49.6425H58.681L58.6069 49.5523H58.5829V49.6425H58.5311V49.4015L58.643 49.4013ZM58.6269 49.7256C58.6541 49.7259 58.6811 49.7204 58.706 49.7097C58.73 49.6995 58.7519 49.6848 58.7704 49.6665C58.789 49.6483 58.8038 49.6266 58.8141 49.6028C58.8352 49.5523 58.8352 49.4956 58.8141 49.4451C58.8037 49.4214 58.7889 49.3998 58.7704 49.3814C58.7519 49.3632 58.73 49.3485 58.706 49.3383C58.6809 49.3281 58.654 49.323 58.6269 49.3233C58.5993 49.3231 58.572 49.3281 58.5464 49.3383C58.5218 49.3483 58.4994 49.363 58.4805 49.3814C58.452 49.4103 58.4327 49.4469 58.4251 49.4865C58.4174 49.5262 58.4217 49.5672 58.4375 49.6044C58.4473 49.6283 58.4619 49.65 58.4805 49.6681C58.4994 49.6866 58.5218 49.7012 58.5464 49.7113C58.5718 49.722 58.5992 49.7275 58.6269 49.7272V49.7256ZM58.6269 49.2653C58.6977 49.2653 58.7657 49.2927 58.8162 49.3418C58.8405 49.3653 58.8599 49.3934 58.8732 49.4244C58.887 49.4563 58.8941 49.4906 58.8941 49.5252C58.8941 49.5598 58.887 49.5941 58.8732 49.6259C58.8596 49.6568 58.8402 49.6848 58.8162 49.7086C58.7915 49.732 58.7627 49.7509 58.7313 49.7643C58.6983 49.7782 58.6628 49.7852 58.6269 49.785C58.5906 49.7853 58.5547 49.7782 58.5212 49.7643C58.4894 49.7512 58.4604 49.7323 58.4357 49.7086C58.4116 49.6839 58.3925 49.6549 58.3795 49.6232C58.3657 49.5914 58.3586 49.5571 58.3586 49.5225C58.3586 49.4878 58.3657 49.4536 58.3795 49.4217C58.3928 49.3907 58.4121 49.3626 58.4365 49.3391C58.4609 49.315 58.49 49.296 58.522 49.2833C58.5555 49.2694 58.5914 49.2624 58.6277 49.2626L58.6269 49.2653ZM33.9617 48.3347C33.9617 47.8752 34.2661 47.4978 34.7637 47.4978C35.2392 47.4978 35.5601 47.859 35.5601 48.3347C35.5601 48.8105 35.2392 49.1717 34.7637 49.1717C34.2661 49.1717 33.9617 48.7942 33.9617 48.3347ZM36.1022 48.3347V47.0271H35.5273V47.3457C35.3449 47.1103 35.0683 46.9626 34.6922 46.9626C33.9512 46.9626 33.3697 47.5373 33.3697 48.3354C33.3697 49.1335 33.9509 49.7081 34.6922 49.7081C35.0682 49.7081 35.3449 49.5603 35.5273 49.3251V49.6425H36.1015L36.1022 48.3347ZM55.5276 48.3347C55.5276 47.8752 55.8321 47.4978 56.3298 47.4978C56.8058 47.4978 57.1262 47.859 57.1262 48.3347C57.1262 48.8105 56.8058 49.1717 56.3298 49.1717C55.8322 49.1717 55.5276 48.7942 55.5276 48.3347ZM57.6688 48.3347V45.9775H57.0934V47.3457C56.911 47.1103 56.6344 46.9626 56.2583 46.9626C55.5173 46.9626 54.9358 47.5373 54.9358 48.3354C54.9358 49.1335 55.517 49.7081 56.2583 49.7081C56.6344 49.7081 56.911 49.5603 57.0934 49.3251V49.6425H57.6688V48.3347ZM43.2376 47.4708C43.6081 47.4708 43.846 47.7005 43.9067 48.1049H42.5349C42.5963 47.7274 42.8279 47.4708 43.2376 47.4708ZM43.2492 46.9612C42.4743 46.9612 41.9323 47.5186 41.9323 48.3339C41.9323 49.1652 42.4961 49.7067 43.2877 49.7067C43.6859 49.7067 44.0505 49.6084 44.3714 49.3403L44.0897 48.9191C43.868 49.0943 43.5858 49.1925 43.3205 49.1925C42.95 49.1925 42.6127 49.0229 42.5298 48.5523H44.4929C44.4985 48.4816 44.5043 48.4102 44.5043 48.3338C44.4985 47.5188 43.9892 46.9612 43.2492 46.9612ZM50.19 48.3338C50.19 47.8743 50.4944 47.4968 50.992 47.4968C51.4675 47.4968 51.7884 47.858 51.7884 48.3338C51.7884 48.8095 51.4675 49.1707 50.992 49.1707C50.4944 49.1707 50.19 48.7933 50.19 48.3338ZM52.3303 48.3338V47.0271H51.7557V47.3457C51.5727 47.1103 51.2968 46.9626 50.9206 46.9626C50.1796 46.9626 49.5981 47.5373 49.5981 48.3354C49.5981 49.1335 50.1793 49.7081 50.9206 49.7081C51.2968 49.7081 51.5727 49.5603 51.7557 49.3251V49.6425H52.3304L52.3303 48.3338ZM46.9433 48.3338C46.9433 49.1268 47.5016 49.7065 48.3538 49.7065C48.752 49.7065 49.0173 49.6189 49.3041 49.3948L49.028 48.9353C48.8122 49.0887 48.5856 49.1707 48.3354 49.1707C47.8765 49.1652 47.539 48.8371 47.539 48.3338C47.539 47.8305 47.8765 47.5025 48.3354 47.4968C48.5849 47.4968 48.8116 47.5788 49.028 47.7322L49.3041 47.2727C49.0168 47.0486 48.7515 46.961 48.3538 46.961C47.5016 46.961 46.9433 47.5406 46.9433 48.3338ZM54.3548 46.961C54.0231 46.961 53.8071 47.1144 53.6578 47.3441V47.0271H53.088V49.641H53.6636V48.1758C53.6636 47.7432 53.8516 47.5029 54.2274 47.5029C54.3504 47.5011 54.4726 47.5235 54.5869 47.5686L54.7641 47.0329C54.6368 46.9833 54.4712 46.961 54.3548 46.961ZM38.9445 47.235C38.6679 47.0547 38.2868 46.9615 37.8664 46.9615C37.1966 46.9615 36.7654 47.2789 36.7654 47.7983C36.7654 48.2245 37.0864 48.4875 37.6776 48.5695L37.9492 48.6077C38.2644 48.6515 38.4132 48.7335 38.4132 48.8812C38.4132 49.0833 38.2038 49.1986 37.8106 49.1986C37.4124 49.1986 37.1251 49.0728 36.9313 48.9251L36.6611 49.3684C36.9764 49.598 37.3746 49.7076 37.8058 49.7076C38.5693 49.7076 39.0118 49.3521 39.0118 48.8544C39.0118 48.3949 38.6636 48.1546 38.0882 48.0726L37.8172 48.0337C37.5684 48.0018 37.3689 47.9523 37.3689 47.7771C37.3689 47.586 37.5569 47.471 37.8723 47.471C38.2098 47.471 38.5365 47.5968 38.6966 47.6951L38.9455 47.2356L38.9445 47.235ZM46.3626 46.962C46.0309 46.962 45.8149 47.1154 45.6662 47.345V47.0271H45.0965V49.641H45.6714V48.1758C45.6714 47.7432 45.8594 47.5029 46.2352 47.5029C46.3582 47.5011 46.4804 47.5235 46.5947 47.5686L46.7719 47.0329C46.6446 46.9833 46.4791 46.962 46.3626 46.962ZM41.4566 47.0271H40.5165V46.2341H39.9353V47.0271H39.3991V47.5467H39.9353V48.7391C39.9353 49.3456 40.1734 49.7068 40.8535 49.7068C41.103 49.7068 41.3904 49.6304 41.5728 49.5047L41.4067 49.018C41.2351 49.1163 41.0471 49.1658 40.8976 49.1658C40.6103 49.1658 40.5165 48.9906 40.5165 48.7283V47.5471H41.4566V47.0271ZM32.8613 49.6417V48.0012C32.8613 47.3834 32.4631 46.9677 31.8212 46.9621C31.4837 46.9566 31.1356 47.0604 30.8919 47.4272C30.7096 47.1373 30.4222 46.9621 30.0182 46.9621C29.7358 46.9621 29.4599 47.0442 29.2438 47.3503V47.0271H28.6685V49.641H29.2484V48.1917C29.2484 47.7379 29.5029 47.4968 29.8959 47.4968C30.2777 47.4968 30.4708 47.7429 30.4708 48.186V49.6407H31.052V48.1914C31.052 47.7376 31.3173 47.4965 31.6989 47.4965C32.0915 47.4965 32.2788 47.7426 32.2788 48.1856V49.6404L32.8613 49.6417Z" fill="#231F20"/>
<path d="M47.4673 42.5859H38.7549V27.105H47.4674L47.4673 42.5859Z" fill="#FF5F00"/>
<path d="M39.3068 34.8455C39.3068 31.7052 40.794 28.9078 43.1097 27.1051C41.3568 25.7385 39.1887 24.9967 36.9565 25C31.4575 25 27 29.4079 27 34.8455C27 40.2831 31.4575 44.691 36.9565 44.691C39.1888 44.6943 41.3569 43.9526 43.1099 42.586C40.7943 40.7835 39.3068 37.986 39.3068 34.8455Z" fill="#EB001B"/>
<path d="M59.221 34.8455C59.221 40.2831 54.7635 44.691 49.2646 44.691C47.032 44.6942 44.8636 43.9526 43.1104 42.586C45.4267 40.7832 46.9139 37.986 46.9139 34.8455C46.9139 31.7051 45.4267 28.9078 43.1104 27.1051C44.8636 25.7385 47.0319 24.9968 49.2644 25C54.7634 25 59.221 29.4079 59.221 34.8455Z" fill="#F79E1B"/>
</svg>
