<svg width="16" height="14" viewBox="0 0 16 14" fill="none" xmlns="http://www.w3.org/2000/svg">
<path d="M14.1115 1.8693C13.7583 1.52212 13.3391 1.24671 12.8776 1.05881C12.4162 0.870907 11.9216 0.774194 11.4221 0.774194C10.9226 0.774194 10.4279 0.870907 9.96649 1.05881C9.50504 1.24671 9.08578 1.52212 8.73266 1.8693L7.99982 2.58949L7.26697 1.8693C6.5537 1.16835 5.58629 0.774557 4.57757 0.774557C3.56886 0.774557 2.60145 1.16835 1.88818 1.8693C1.17491 2.57026 0.774194 3.52095 0.774194 4.51225C0.774194 5.50355 1.17491 6.45425 1.88818 7.1552L2.62102 7.87539L7.99982 13.1613L13.3786 7.87539L14.1115 7.1552C14.4647 6.80818 14.745 6.39616 14.9362 5.94268C15.1274 5.48919 15.2258 5.00313 15.2258 4.51225C15.2258 4.02138 15.1274 3.53532 14.9362 3.08183C14.745 2.62834 14.4647 2.21632 14.1115 1.8693V1.8693Z" stroke="#B33DFB" stroke-width="1.5" stroke-linecap="round" stroke-linejoin="round"/>
</svg>
