<svg width="17" height="17" viewBox="0 0 17 17" fill="none" xmlns="http://www.w3.org/2000/svg">
<path d="M7.68486 2.39852H2.30546C1.89783 2.39852 1.50689 2.56045 1.21865 2.84869C0.930416 3.13692 0.768486 3.52786 0.768486 3.93549V14.6943C0.768486 15.1019 0.930416 15.4929 1.21865 15.7811C1.50689 16.0693 1.89783 16.2313 2.30546 16.2313H13.0643C13.4719 16.2313 13.8628 16.0693 14.1511 15.7811C14.4393 15.4929 14.6012 15.1019 14.6012 14.6943V9.31489" stroke="#FB6D3A" stroke-width="1.5" stroke-linecap="round" stroke-linejoin="round"/>
<path d="M13.4485 1.24596C13.7542 0.940239 14.1689 0.768486 14.6012 0.768486C15.0336 0.768486 15.4482 0.940239 15.754 1.24596C16.0597 1.55168 16.2314 1.96633 16.2314 2.39869C16.2314 2.83105 16.0597 3.2457 15.754 3.55142L8.45335 10.852L5.3794 11.6205L6.14789 8.54658L13.4485 1.24596Z" stroke="#FB6D3A" stroke-width="1.5" stroke-linecap="round" stroke-linejoin="round"/>
</svg>
