<svg width="29" height="31" viewBox="0 0 29 31" fill="none" xmlns="http://www.w3.org/2000/svg">
<g filter="url(#filter0_d_24_526)">
<path opacity="0.4" d="M4.02167 13.4895V11.6462C4.02167 10.557 4.91188 9.65635 6.01156 9.65635C7.90719 9.65635 8.6822 8.3158 7.72914 6.67152C7.18454 5.72894 7.50921 4.50359 8.46226 3.95899L10.2741 2.92215C11.1015 2.42992 12.1697 2.72316 12.662 3.55054L12.7772 3.74953C13.7198 5.3938 15.2698 5.3938 16.2228 3.74953L16.338 3.55054C16.8303 2.72316 17.8985 2.42992 18.7259 2.92215L20.5377 3.95899C21.4908 4.50359 21.8155 5.72894 21.2709 6.67152C20.3178 8.3158 21.0928 9.65635 22.9884 9.65635C24.0776 9.65635 24.9783 10.5466 24.9783 11.6462V13.4895C24.9783 14.5787 24.0881 15.4794 22.9884 15.4794C21.0928 15.4794 20.3178 16.8199 21.2709 18.4642C21.8155 19.4173 21.4908 20.6322 20.5377 21.1768L18.7259 22.2136C17.8985 22.7058 16.8303 22.4126 16.338 21.5852L16.2228 21.3862C15.2802 19.7419 13.7302 19.7419 12.7772 21.3862L12.662 21.5852C12.1697 22.4126 11.1015 22.7058 10.2741 22.2136L8.46226 21.1768C7.50921 20.6322 7.18454 19.4068 7.72914 18.4642C8.6822 16.8199 7.90719 15.4794 6.01156 15.4794C4.91188 15.4794 4.02167 14.5787 4.02167 13.4895Z" fill="#FF7622"/>
<path d="M14.4948 15.9716C16.3746 15.9716 17.8985 14.4477 17.8985 12.5679C17.8985 10.688 16.3746 9.16412 14.4948 9.16412C12.6149 9.16412 11.091 10.688 11.091 12.5679C11.091 14.4477 12.6149 15.9716 14.4948 15.9716Z" fill="#FF7622"/>
</g>
<defs>
<filter id="filter0_d_24_526" x="-2.09478" y="0" width="33.1788" height="33.1788" filterUnits="userSpaceOnUse" color-interpolation-filters="sRGB">
<feFlood flood-opacity="0" result="BackgroundImageFix"/>
<feColorMatrix in="SourceAlpha" type="matrix" values="0 0 0 0 0 0 0 0 0 0 0 0 0 0 0 0 0 0 127 0" result="hardAlpha"/>
<feOffset dy="4"/>
<feGaussianBlur stdDeviation="2"/>
<feComposite in2="hardAlpha" operator="out"/>
<feColorMatrix type="matrix" values="0 0 0 0 0 0 0 0 0 0 0 0 0 0 0 0 0 0 0.25 0"/>
<feBlend mode="normal" in2="BackgroundImageFix" result="effect1_dropShadow_24_526"/>
<feBlend mode="normal" in="SourceGraphic" in2="effect1_dropShadow_24_526" result="shape"/>
</filter>
</defs>
</svg>
