<svg width="16" height="16" viewBox="0 0 16 16" fill="none" xmlns="http://www.w3.org/2000/svg">
<g clip-path="url(#clip0_7_6324)">
<path d="M13.6783 6.73855C13.6783 11.1548 8.00027 14.9401 8.00027 14.9401C8.00027 14.9401 2.32227 11.1548 2.32227 6.73855C2.32227 5.23265 2.92048 3.78843 3.98531 2.7236C5.05015 1.65876 6.49437 1.06055 8.00027 1.06055C9.50617 1.06055 10.9504 1.65876 12.0152 2.7236C13.0801 3.78843 13.6783 5.23265 13.6783 6.73855Z" stroke="white" stroke-width="1.5" stroke-linecap="round" stroke-linejoin="round"/>
<path d="M8.00009 8.63104C9.04538 8.63104 9.89276 7.78366 9.89276 6.73837C9.89276 5.69308 9.04538 4.8457 8.00009 4.8457C6.9548 4.8457 6.10742 5.69308 6.10742 6.73837C6.10742 7.78366 6.9548 8.63104 8.00009 8.63104Z" stroke="white" stroke-width="1.5" stroke-linecap="round" stroke-linejoin="round"/>
</g>
<defs>
<clipPath id="clip0_7_6324">
<rect width="16" height="16" fill="white"/>
</clipPath>
</defs>
</svg>
