<svg width="16" height="16" viewBox="0 0 16 16" fill="none" xmlns="http://www.w3.org/2000/svg">
<path fill-rule="evenodd" clip-rule="evenodd" d="M1.03176 2.79594C1.26958 2.40217 2.7571 0.620653 3.69215 0.663891C3.97167 0.687054 4.21875 0.856143 4.41951 1.05226C4.88047 1.50239 6.20005 3.20486 6.27495 3.56311C6.45717 4.44176 4.93418 5.22828 5.25462 6.11388C6.07154 8.11284 7.84628 9.88927 9.84612 10.7054C10.731 11.0258 11.5183 9.50221 12.3969 9.68519C12.7544 9.76009 14.4976 11.2649 14.9478 11.7259C15.1431 11.9258 15.313 12.1737 15.3362 12.4532C15.3709 13.4376 13.4608 14.758 13.1643 14.9279C12.4648 15.4282 11.5521 15.4197 10.4395 14.9024C7.33471 13.6107 2.37296 8.74263 1.05724 5.52067C0.553808 4.41426 0.519062 3.49546 1.03176 2.79594Z" stroke="#369BFF" stroke-width="1.3" stroke-linecap="round" stroke-linejoin="round"/>
</svg>
