<svg width="24" height="24" viewBox="0 0 24 24" fill="none" xmlns="http://www.w3.org/2000/svg">
<path d="M19.801 5.82543C20.0699 5.01919 20.0662 4.14762 19.7903 3.34368C19.5145 2.53975 18.9817 1.84759 18.2733 1.37281C17.0594 0.558604 15.7573 0.363005 14.6074 0.822214C13.4425 1.28736 12.5918 2.39142 12.2733 3.85123C12.1698 4.32615 12.0738 4.83268 11.9881 5.35683C11.9357 5.67715 11.8734 6.00915 11.8033 6.34364C11.7946 6.39062 11.7711 6.43364 11.7363 6.46656C11.7015 6.49949 11.6571 6.52063 11.6095 6.52698C11.5606 6.53552 11.5103 6.52882 11.4655 6.50779C11.4206 6.48677 11.3834 6.45245 11.359 6.40955C11.053 5.88693 10.7882 5.38787 10.5722 4.92598C10.453 4.67317 10.283 4.44736 10.0725 4.26253C9.86203 4.0777 9.61566 3.93778 9.34861 3.85142C9.09269 3.76633 8.82176 3.73513 8.55305 3.7598C8.28434 3.78447 8.02373 3.86448 7.78781 3.99472C7.32938 4.24515 6.98854 4.66492 6.839 5.16326C6.68946 5.66159 6.74324 6.19842 6.98872 6.65764C7.7379 8.08297 9.25265 9.53627 10.3913 10.5045C10.4288 10.536 10.4555 10.5785 10.4675 10.6259C10.4796 10.6732 10.4764 10.7232 10.4585 10.7687C9.72089 12.6092 8.78465 14.3648 7.66622 16.0047C7.49935 15.8006 7.34693 15.6012 7.21378 15.4096C7.10134 15.246 6.95277 15.11 6.77941 15.0122C6.60605 14.9143 6.41249 14.8572 6.21352 14.845C6.01558 14.8318 5.81724 14.864 5.63379 14.9391C5.45033 15.0141 5.28668 15.1301 5.15545 15.278C4.94323 15.5163 4.82609 15.8236 4.82614 16.1418C4.82534 16.3621 4.88162 16.5788 4.98954 16.7712C5.27503 17.2849 5.59337 17.7798 5.9426 18.253C5.5233 18.7396 5.08884 19.2058 4.63923 19.6515C4.39608 19.8937 4.21318 20.189 4.10513 20.5138C3.99708 20.8387 3.96685 21.1842 4.01686 21.5228C4.06687 21.8613 4.19573 22.1835 4.39317 22.4638C4.59062 22.7441 4.85118 22.9746 5.1541 23.1371L5.19938 23.1614C5.51227 23.3307 5.86271 23.4196 6.21892 23.42C6.64346 23.4202 7.05802 23.292 7.40763 23.0526C9.14725 21.8627 11.368 19.6883 13.3481 17.2355C13.374 17.2027 13.408 17.1771 13.4469 17.1614C13.4858 17.1458 13.5281 17.1405 13.5697 17.1463C14.7588 17.3131 15.9325 17.5743 17.0796 17.9273C17.3598 18.0209 17.6586 18.0463 17.9508 18.0014C18.2429 17.9565 18.52 17.8425 18.7587 17.6691C18.9958 17.5001 19.1888 17.2771 19.3214 17.0187C19.454 16.7603 19.5224 16.4741 19.5208 16.184V16.1196C19.527 15.6442 19.3717 15.1806 19.0799 14.8039C18.7881 14.4272 18.3769 14.1595 17.913 14.0441C17.3685 13.9206 16.8138 13.8472 16.2558 13.8247C16.2148 13.8229 16.175 13.8103 16.1406 13.7881C16.1061 13.766 16.0782 13.7351 16.0597 13.6987C16.0398 13.6613 16.0303 13.6193 16.0322 13.577C16.0342 13.5348 16.0474 13.4938 16.0707 13.4584C17.6186 11.0726 18.8711 8.50975 19.801 5.82543ZM5.57822 16.4443C5.52649 16.3519 5.49992 16.2476 5.50114 16.1418C5.50137 15.988 5.55803 15.8395 5.6605 15.7242C5.72379 15.6526 5.80271 15.5965 5.89122 15.5599C5.97973 15.5234 6.07548 15.5075 6.17113 15.5135C6.26815 15.5195 6.36251 15.5475 6.447 15.5953C6.53149 15.6431 6.60388 15.7095 6.65864 15.7893C6.83379 16.0418 7.03805 16.3052 7.26523 16.5748C6.98262 16.9664 6.6903 17.3482 6.38829 17.7202C6.0939 17.3107 5.82343 16.8847 5.57822 16.4443ZM15.4606 14.0058C15.5328 14.1467 15.6413 14.2661 15.775 14.3517C15.9088 14.4374 16.063 14.4862 16.2219 14.4933C16.738 14.5139 17.2511 14.5814 17.7548 14.695C18.0714 14.7755 18.3514 14.9598 18.5495 15.2181C18.7477 15.4765 18.8522 15.7938 18.8464 16.1187V16.184C18.8475 16.3681 18.8042 16.5499 18.72 16.7139C18.6359 16.878 18.5135 17.0196 18.3629 17.1269C18.2103 17.2375 18.0332 17.3102 17.8465 17.3387C17.6599 17.3673 17.469 17.351 17.29 17.2911C16.9578 17.1827 16.6177 17.0859 16.2791 16.9989C16.4439 16.6401 16.6516 16.1244 16.6607 15.7866C16.663 15.6977 16.6298 15.6115 16.5682 15.547C16.5377 15.5151 16.5012 15.4894 16.4607 15.4715C16.4202 15.4536 16.3766 15.4437 16.3323 15.4426C16.2429 15.4402 16.1562 15.4733 16.0913 15.5345C16.0264 15.5958 15.9886 15.6801 15.9863 15.769C15.9136 16.1422 15.7864 16.5028 15.6086 16.8394C14.8864 16.6786 14.2035 16.5622 13.6664 16.4838C13.5087 16.4612 13.3477 16.48 13.1994 16.5383C13.0512 16.5966 12.9209 16.6924 12.8213 16.8162C12.5901 17.1024 12.3561 17.3841 12.1195 17.6614C11.6504 17.4827 11.2046 17.2486 10.7917 16.9643C10.7573 16.9365 10.7178 16.9158 10.6753 16.9032C10.6329 16.8906 10.5884 16.8865 10.5443 16.891C10.5002 16.8955 10.4575 16.9087 10.4186 16.9296C10.3796 16.9506 10.3452 16.9789 10.3173 17.0131C10.2893 17.0473 10.2685 17.0866 10.2558 17.1288C10.2432 17.171 10.239 17.2153 10.2436 17.2591C10.2482 17.3029 10.2613 17.3453 10.2824 17.3841C10.3035 17.4228 10.332 17.457 10.3664 17.4848C10.7662 17.7721 11.1993 18.0107 11.6563 18.1955C10.5622 19.4523 9.37062 20.6219 8.09265 21.6935C7.75684 21.4402 7.45278 21.1477 7.187 20.8224C7.16482 20.7843 7.13531 20.751 7.10016 20.7242C7.06501 20.6975 7.0249 20.6779 6.98212 20.6665C6.93935 20.6552 6.89475 20.6523 6.85087 20.6581C6.80698 20.6639 6.76468 20.6783 6.72637 20.7003C6.68806 20.7224 6.65449 20.7517 6.62758 20.7866C6.60068 20.8216 6.58096 20.8615 6.56955 20.904C6.55814 20.9465 6.55527 20.9909 6.5611 21.0345C6.56693 21.0781 6.58135 21.1202 6.60353 21.1583C6.76924 21.4429 7.22342 21.8479 7.55157 22.1194C7.37179 22.2552 7.19509 22.3844 7.02456 22.501C6.80501 22.6503 6.54811 22.736 6.28245 22.7487C6.01679 22.7615 5.75279 22.7006 5.51983 22.5731L5.47455 22.5485C5.26223 22.4355 5.07976 22.2742 4.94201 22.0778C4.80425 21.8814 4.7151 21.6554 4.68182 21.4182C4.64655 21.1845 4.6673 20.9458 4.74238 20.7216C4.81745 20.4973 4.94472 20.2939 5.11383 20.1278C5.63699 19.6105 6.13933 19.063 6.62164 18.4911C6.62723 18.4848 6.63243 18.4783 6.63763 18.472C7.69868 17.2068 8.64041 15.8473 9.45093 14.4106C9.71941 14.5617 9.99866 14.6931 10.2864 14.8037C10.3699 14.8333 10.4617 14.8291 10.5421 14.7919C10.6224 14.7547 10.6848 14.6876 10.7158 14.6051C10.7467 14.5225 10.7438 14.4312 10.7075 14.3508C10.6713 14.2704 10.6047 14.2074 10.5221 14.1755C10.2646 14.0759 10.0148 13.9579 9.77446 13.8224C10.2622 12.9121 10.6996 11.976 11.0848 11.0183C11.1549 10.8428 11.1681 10.6498 11.1223 10.4664C11.0766 10.2831 10.9742 10.1186 10.8296 9.99605C9.90187 9.22498 9.05334 8.36429 8.29652 7.42663C8.5316 7.11876 8.92816 6.64595 9.23512 6.47104C9.27354 6.44915 9.30725 6.41996 9.33433 6.38512C9.3614 6.35027 9.38131 6.31047 9.39292 6.26798C9.40452 6.22549 9.40759 6.18115 9.40196 6.13748C9.39632 6.0938 9.38209 6.05166 9.36008 6.01346C9.33806 5.97526 9.30869 5.94174 9.27365 5.91482C9.23861 5.8879 9.19857 5.86811 9.15584 5.85658C9.1131 5.84504 9.06849 5.84198 9.02457 5.84759C8.98064 5.85319 8.93826 5.86734 8.89983 5.88922C8.51 6.15248 8.16783 6.47946 7.88782 6.8563C7.77683 6.68618 7.67586 6.51606 7.58645 6.34671C7.42363 6.04233 7.38782 5.68648 7.48676 5.35607C7.5857 5.02566 7.81144 4.74722 8.11519 4.58095C8.30228 4.47723 8.51297 4.42289 8.72718 4.42309C8.8674 4.42346 9.00668 4.44576 9.13993 4.48918C9.3189 4.54694 9.48405 4.6406 9.62514 4.76437C9.76624 4.88814 9.88028 5.03939 9.96022 5.20874C10.1851 5.68922 10.4593 6.20667 10.7759 6.74691C10.8687 6.90575 11.0077 7.03294 11.1746 7.11177C11.3415 7.1906 11.5284 7.21739 11.7109 7.1886C11.8934 7.1598 12.0629 7.07679 12.197 6.95046C12.3311 6.82414 12.4237 6.66041 12.4625 6.48081C12.535 6.13598 12.5989 5.79459 12.6531 5.46546C12.7063 5.13939 12.7635 4.82208 12.8248 4.51351C13.2809 4.74015 13.7044 4.92387 13.7273 4.93383C13.8093 4.9694 13.9022 4.97112 13.9855 4.93863C14.0687 4.90613 14.1356 4.84207 14.1714 4.76055C14.2072 4.67903 14.2089 4.58671 14.1762 4.50392C14.1435 4.42112 14.0791 4.35463 13.9971 4.31906C13.9909 4.31638 13.4672 4.08917 12.971 3.83514C13.2653 2.67629 13.9462 1.80979 14.8594 1.44541C15.7943 1.0705 16.873 1.24292 17.8964 1.92876C18.4041 2.26945 18.8045 2.746 19.0513 3.30335C19.2982 3.8607 19.3814 4.47611 19.2913 5.07847C18.7133 4.93108 18.1493 4.73371 17.6058 4.48861C17.5663 4.46685 17.5228 4.4532 17.4779 4.44847C17.433 4.44375 17.3876 4.44804 17.3444 4.46109C17.3012 4.47414 17.2611 4.49568 17.2264 4.52445C17.1917 4.55321 17.1632 4.58861 17.1425 4.62854C17.1219 4.66846 17.1095 4.71211 17.1061 4.75688C17.1028 4.80165 17.1085 4.84664 17.1229 4.88918C17.1374 4.93172 17.1603 4.97093 17.1903 5.0045C17.2203 5.03807 17.2567 5.06531 17.2975 5.0846C17.8849 5.3526 18.4952 5.56777 19.1212 5.72753C18.7753 6.73041 18.3782 7.71511 17.9315 8.67781C17.4334 8.52915 16.2921 8.15883 15.6512 7.71112C15.6149 7.6858 15.574 7.66782 15.5308 7.65821C15.4876 7.6486 15.4429 7.64756 15.3992 7.65512C15.3556 7.66269 15.3139 7.67873 15.2765 7.70233C15.2391 7.72592 15.2068 7.75661 15.1813 7.79263C15.1558 7.82866 15.1377 7.86932 15.1281 7.9123C15.1184 7.95527 15.1174 7.99972 15.125 8.0431C15.1326 8.08648 15.1487 8.12794 15.1724 8.16512C15.1962 8.2023 15.227 8.23447 15.2633 8.25979C15.9483 8.73874 17.07 9.11748 17.6428 9.29201C17.0036 10.6007 16.2886 11.8713 15.5014 13.0977C15.4145 13.2319 15.3649 13.3867 15.3578 13.5462C15.3506 13.7058 15.3861 13.8643 15.4606 14.0058Z" fill="#FB6D3A"/>
<path d="M8.99272 19.3324C8.83048 19.4911 8.66945 19.6451 8.50965 19.7947C8.44451 19.8557 8.40641 19.9399 8.40372 20.0288C8.40103 20.1177 8.43397 20.204 8.49529 20.2688C8.55662 20.3335 8.64131 20.3714 8.73073 20.3741C8.82015 20.3768 8.90697 20.344 8.97211 20.283C9.13551 20.1298 9.30013 19.9722 9.46598 19.8102C9.49833 19.7795 9.52422 19.7427 9.54214 19.702C9.56005 19.6613 9.56964 19.6174 9.57034 19.5729C9.57104 19.5285 9.56283 19.4843 9.54621 19.443C9.52958 19.4018 9.50486 19.3642 9.47348 19.3325C9.44211 19.3008 9.40471 19.2756 9.36346 19.2585C9.32221 19.2413 9.27794 19.2324 9.23321 19.2324C9.18849 19.2324 9.14422 19.2413 9.10296 19.2584C9.06171 19.2756 9.0243 19.3007 8.99292 19.3324H8.99272Z" fill="#FB6D3A"/>
<path d="M15.099 10.5473C15.0925 10.5446 14.4296 10.2803 13.9219 10.0214C13.8825 10.0013 13.8395 9.9891 13.7953 9.9855C13.7512 9.9819 13.7068 9.98697 13.6646 10.0004C13.6224 10.0139 13.5833 10.0355 13.5495 10.064C13.5158 10.0925 13.4879 10.1273 13.4677 10.1665C13.4475 10.2056 13.4352 10.2484 13.4316 10.2923C13.4279 10.3362 13.433 10.3803 13.4466 10.4223C13.4601 10.4642 13.4818 10.5031 13.5105 10.5367C13.5391 10.5702 13.5742 10.5979 13.6136 10.618C14.1498 10.8914 14.8198 11.1587 14.848 11.17C14.931 11.203 15.0238 11.2019 15.1061 11.1668C15.1883 11.1318 15.2531 11.0657 15.2863 10.9832C15.3195 10.9006 15.3184 10.8083 15.2832 10.7266C15.2479 10.6448 15.1815 10.5804 15.0985 10.5473H15.099Z" fill="#FB6D3A"/>
</svg>
