<svg width="25" height="25" viewBox="0 0 25 25" fill="none" xmlns="http://www.w3.org/2000/svg">
<path opacity="0.4" d="M2.0835 13.4168V11.5835C2.0835 10.5002 2.96891 9.60432 4.06266 9.60432C5.94808 9.60432 6.71891 8.27099 5.771 6.63557C5.22933 5.69807 5.55225 4.47932 6.50016 3.93766L8.30225 2.90641C9.12516 2.41682 10.1877 2.70849 10.6772 3.53141L10.7918 3.72932C11.7293 5.36474 13.271 5.36474 14.2189 3.72932L14.3335 3.53141C14.8231 2.70849 15.8856 2.41682 16.7085 2.90641L18.5106 3.93766C19.4585 4.47932 19.7814 5.69807 19.2397 6.63557C18.2918 8.27099 19.0627 9.60432 20.9481 9.60432C22.0314 9.60432 22.9272 10.4897 22.9272 11.5835V13.4168C22.9272 14.5002 22.0418 15.396 20.9481 15.396C19.0627 15.396 18.2918 16.7293 19.2397 18.3647C19.7814 19.3127 19.4585 20.521 18.5106 21.0627L16.7085 22.0939C15.8856 22.5835 14.8231 22.2918 14.3335 21.4689L14.2189 21.271C13.2814 19.6356 11.7397 19.6356 10.7918 21.271L10.6772 21.4689C10.1877 22.2918 9.12516 22.5835 8.30225 22.0939L6.50016 21.0627C5.55225 20.521 5.22933 19.3022 5.771 18.3647C6.71891 16.7293 5.94808 15.396 4.06266 15.396C2.96891 15.396 2.0835 14.5002 2.0835 13.4168Z" fill="#484C52"/>
<path d="M12.5002 15.8851C14.3699 15.8851 15.8856 14.3694 15.8856 12.4997C15.8856 10.63 14.3699 9.11426 12.5002 9.11426C10.6304 9.11426 9.11475 10.63 9.11475 12.4997C9.11475 14.3694 10.6304 15.8851 12.5002 15.8851Z" fill="#484C52"/>
</svg>
