<svg width="25" height="25" viewBox="0 0 25 25" fill="none" xmlns="http://www.w3.org/2000/svg">
<path d="M22.9165 6.25016V8.771C22.9165 10.4168 21.8748 11.4585 20.229 11.4585H16.6665V4.17725C16.6665 3.021 17.6144 2.0835 18.7707 2.0835C19.9061 2.09391 20.9478 2.55225 21.6978 3.30225C22.4478 4.06266 22.9165 5.10433 22.9165 6.25016Z" fill="#FF7622"/>
<path opacity="0.4" d="M2.0835 7.29183V21.8752C2.0835 22.7397 3.06267 23.2293 3.75017 22.7085L5.53141 21.3752C5.94808 21.0627 6.53142 21.1043 6.90642 21.4793L8.63557 23.2189C9.04182 23.6252 9.7085 23.6252 10.1148 23.2189L11.8647 21.4689C12.2293 21.1043 12.8127 21.0627 13.2189 21.3752L15.0002 22.7085C15.6877 23.2189 16.6668 22.7293 16.6668 21.8752V4.16683C16.6668 3.021 17.6043 2.0835 18.7502 2.0835H7.29183H6.25016C3.12516 2.0835 2.0835 3.94808 2.0835 6.25016V7.29183Z" fill="#FF7622"/>
<path d="M12.5 10.1562H6.25C5.82292 10.1562 5.46875 9.80208 5.46875 9.375C5.46875 8.94792 5.82292 8.59375 6.25 8.59375H12.5C12.9271 8.59375 13.2812 8.94792 13.2812 9.375C13.2812 9.80208 12.9271 10.1562 12.5 10.1562Z" fill="#FF7622"/>
<path d="M11.7188 14.3228H7.03125C6.60417 14.3228 6.25 13.9686 6.25 13.5415C6.25 13.1144 6.60417 12.7603 7.03125 12.7603H11.7188C12.1458 12.7603 12.5 13.1144 12.5 13.5415C12.5 13.9686 12.1458 14.3228 11.7188 14.3228Z" fill="#FF7622"/>
</svg>
