<svg width="25" height="25" viewBox="0 0 25 25" fill="none" xmlns="http://www.w3.org/2000/svg">
<path opacity="0.4" d="M9.24994 4.79199C8.41661 1.18783 2.98953 1.17741 2.15619 4.79199C1.66661 6.90658 3.01036 8.69824 4.17703 9.81283C5.03119 10.6149 6.37494 10.6149 7.22911 9.81283C8.39578 8.69824 9.72911 6.90658 9.24994 4.79199ZM5.73953 6.45866C5.16661 6.45866 4.69786 5.98991 4.69786 5.41699C4.69786 4.84408 5.15619 4.37533 5.72911 4.37533H5.73953C6.32286 4.37533 6.7812 4.84408 6.7812 5.41699C6.7812 5.98991 6.32286 6.45866 5.73953 6.45866Z" fill="#484C52"/>
<path d="M6.78109 5.41667C6.78109 5.98958 6.32275 6.45833 5.73942 6.45833C5.1665 6.45833 4.69775 5.98958 4.69775 5.41667C4.69775 4.84375 5.15609 4.375 5.729 4.375H5.73942C6.32275 4.375 6.78109 4.84375 6.78109 5.41667Z" fill="#484C52"/>
<path opacity="0.4" d="M22.8232 17.292C21.9898 13.6878 16.5419 13.6774 15.6982 17.292C15.2086 19.4066 16.5523 21.1982 17.7294 22.3128C18.5836 23.1149 19.9377 23.1149 20.7919 22.3128C21.969 21.1982 23.3127 19.4066 22.8232 17.292ZM19.3023 18.9587C18.7294 18.9587 18.2607 18.4899 18.2607 17.917C18.2607 17.3441 18.719 16.8753 19.2919 16.8753H19.3023C19.8752 16.8753 20.344 17.3441 20.344 17.917C20.344 18.4899 19.8752 18.9587 19.3023 18.9587Z" fill="#484C52"/>
<path d="M20.3436 17.9167C20.3436 18.4896 19.8748 18.9583 19.3019 18.9583C18.729 18.9583 18.2603 18.4896 18.2603 17.9167C18.2603 17.3437 18.7186 16.875 19.2915 16.875H19.3019C19.8748 16.875 20.3436 17.3437 20.3436 17.9167Z" fill="#484C52"/>
<path d="M12.5002 20.5726H9.70849C8.50016 20.5726 7.44808 19.8434 7.03141 18.7184C6.60433 17.5934 6.91683 16.3538 7.82308 15.5518L16.146 8.27051C16.646 7.83301 16.6564 7.23926 16.5106 6.83301C16.3543 6.42676 15.9585 5.98926 15.2918 5.98926H12.5002C12.0731 5.98926 11.7189 5.63509 11.7189 5.20801C11.7189 4.78092 12.0731 4.42676 12.5002 4.42676H15.2918C16.5002 4.42676 17.5522 5.15592 17.9689 6.28092C18.396 7.40593 18.0835 8.64551 17.1772 9.44759L8.85433 16.7288C8.35433 17.1663 8.34391 17.7601 8.48974 18.1663C8.64599 18.5726 9.04183 19.0101 9.70849 19.0101H12.5002C12.9272 19.0101 13.2814 19.3643 13.2814 19.7913C13.2814 20.2184 12.9272 20.5726 12.5002 20.5726Z" fill="#484C52"/>
</svg>
