<svg width="21" height="17" viewBox="0 0 21 17" fill="none" xmlns="http://www.w3.org/2000/svg">
<path d="M19.6607 6.10226C19.3648 5.71116 19.0486 5.34556 18.7221 5.00546C18.3446 4.60585 17.6304 4.57184 17.2019 4.92894L14.141 7.47964C14.3655 8.04079 14.4063 8.68697 14.2022 9.35865C13.8451 10.5575 12.682 11.5267 11.2434 11.8243C10.4374 11.9944 9.66199 11.9604 8.98861 11.7733C8.98861 11.7733 7.52961 12.9891 6.47872 13.8649C5.96858 14.29 6.13182 15.0382 6.81541 15.2593C7.90711 15.6079 9.03962 15.7864 10.2027 15.7864C12.0188 15.7864 13.7839 15.3443 15.396 14.5196C17.0386 13.6693 18.518 12.4195 19.7117 10.8296C20.681 9.5457 20.63 7.38611 19.6607 6.10226Z" fill="#B4B9CA"/>
<path d="M12.2639 6.78107L8.14196 10.216C7.62162 9.77389 7.28493 9.16172 7.28493 8.49854C7.28493 7.16367 8.59089 6.06687 10.2029 6.06687C10.9987 6.06687 11.7333 6.34745 12.2639 6.78107Z" fill="#B4B9CA"/>
<path d="M16.5795 3.18512L13.1208 6.06741C12.376 5.43823 11.3455 5.06413 10.2028 5.06413C7.91737 5.06413 6.08086 6.60305 6.08086 8.49907C6.08086 9.45133 6.53999 10.3101 7.28479 10.9307L3.83625 13.813H3.82605C2.69354 13.0478 1.65285 12.07 0.765209 10.9137C-0.25507 9.57887 -0.25507 7.41077 0.765209 6.07591C1.94873 4.52848 3.39753 3.31265 5.00957 2.47942C6.62161 1.6632 8.38669 1.21258 10.2028 1.21258C12.478 1.21258 14.6818 1.90977 16.5795 3.18512Z" fill="#B4B9CA"/>
<path d="M13.1209 8.49907C13.1209 9.83394 11.8149 10.9307 10.2029 10.9307C10.1417 10.9307 10.0906 10.9307 10.0294 10.9137L13.1005 8.35453C13.1209 8.40554 13.1209 8.44806 13.1209 8.49907Z" fill="#B4B9CA"/>
<path d="M20.1708 0.191302C19.8647 -0.0637674 19.3648 -0.0637674 19.0587 0.191302L0.234545 15.8866C-0.0715391 16.1417 -0.0715391 16.5583 0.234545 16.8134C0.387586 16.9324 0.581439 17.0004 0.785495 17.0004C0.989551 17.0004 1.1834 16.9324 1.33645 16.8048L20.1708 1.10955C20.4871 0.854484 20.4871 0.446372 20.1708 0.191302Z" fill="#B4B9CA"/>
</svg>
