<svg width="16" height="16" viewBox="0 0 16 16" fill="none" xmlns="http://www.w3.org/2000/svg">
<path d="M8.00025 10.0166C9.1141 10.0166 10.017 9.1136 10.017 7.99975C10.017 6.8859 9.1141 5.98295 8.00025 5.98295C6.8864 5.98295 5.98344 6.8859 5.98344 7.99975C5.98344 9.1136 6.8864 10.0166 8.00025 10.0166Z" stroke="#413DFB" stroke-width="1.2" stroke-linecap="round" stroke-linejoin="round"/>
<path d="M12.9749 10.0169C12.8854 10.2197 12.8587 10.4446 12.8982 10.6627C12.9378 10.8807 13.0417 11.082 13.1967 11.2404L13.237 11.2807C13.3621 11.4056 13.4612 11.5539 13.5289 11.7171C13.5966 11.8804 13.6314 12.0553 13.6314 12.232C13.6314 12.4087 13.5966 12.5837 13.5289 12.7469C13.4612 12.9101 13.3621 13.0584 13.237 13.1833C13.1122 13.3083 12.9639 13.4074 12.8007 13.4751C12.6374 13.5428 12.4625 13.5776 12.2858 13.5776C12.1091 13.5776 11.9341 13.5428 11.7709 13.4751C11.6077 13.4074 11.4594 13.3083 11.3345 13.1833L11.2942 13.1429C11.1358 12.9879 10.9345 12.884 10.7164 12.8444C10.4984 12.8049 10.2734 12.8316 10.0707 12.9211C9.87183 13.0063 9.70225 13.1478 9.5828 13.3282C9.46336 13.5085 9.39926 13.7199 9.3984 13.9362V14.0505C9.3984 14.4071 9.25674 14.7491 9.00459 15.0012C8.75244 15.2534 8.41046 15.395 8.05386 15.395C7.69727 15.395 7.35528 15.2534 7.10313 15.0012C6.85098 14.7491 6.70933 14.4071 6.70933 14.0505V13.99C6.70412 13.7675 6.6321 13.5517 6.50261 13.3706C6.37313 13.1896 6.19218 13.0517 5.98328 12.9749C5.78051 12.8854 5.55559 12.8587 5.33751 12.8982C5.11943 12.9378 4.91819 13.0417 4.75975 13.1967L4.71942 13.237C4.59454 13.3621 4.44626 13.4612 4.28303 13.5289C4.11981 13.5966 3.94485 13.6314 3.76816 13.6314C3.59146 13.6314 3.4165 13.5966 3.25328 13.5289C3.09006 13.4612 2.94177 13.3621 2.8169 13.237C2.69189 13.1122 2.59272 12.9639 2.52505 12.8007C2.45739 12.6374 2.42256 12.4625 2.42256 12.2858C2.42256 12.1091 2.45739 11.9341 2.52505 11.7709C2.59272 11.6077 2.69189 11.4594 2.8169 11.3345L2.85724 11.2942C3.01222 11.1358 3.11618 10.9345 3.15572 10.7164C3.19527 10.4984 3.16857 10.2734 3.07908 10.0707C2.99386 9.87183 2.85236 9.70225 2.672 9.58281C2.49164 9.46336 2.28029 9.39926 2.06396 9.3984H1.94967C1.59308 9.3984 1.25109 9.25674 0.998944 9.00459C0.746795 8.75244 0.605139 8.41046 0.605139 8.05386C0.605139 7.69727 0.746795 7.35528 0.998944 7.10313C1.25109 6.85098 1.59308 6.70933 1.94967 6.70933H2.01018C2.23269 6.70412 2.4485 6.6321 2.62954 6.50261C2.81058 6.37313 2.94847 6.19218 3.0253 5.98328C3.11479 5.78051 3.14149 5.55559 3.10194 5.33751C3.0624 5.11943 2.95844 4.91819 2.80345 4.75975L2.76312 4.71942C2.63811 4.59455 2.53894 4.44626 2.47127 4.28303C2.40361 4.11981 2.36878 3.94485 2.36878 3.76816C2.36878 3.59147 2.40361 3.41651 2.47127 3.25328C2.53894 3.09006 2.63811 2.94177 2.76312 2.8169C2.88799 2.69189 3.03628 2.59272 3.1995 2.52505C3.36272 2.45739 3.53768 2.42257 3.71438 2.42257C3.89107 2.42257 4.06603 2.45739 4.22925 2.52505C4.39248 2.59272 4.54076 2.69189 4.66563 2.8169L4.70597 2.85724C4.86441 3.01222 5.06564 3.11618 5.28372 3.15573C5.5018 3.19527 5.72673 3.16857 5.9295 3.07908H5.98328C6.18211 2.99386 6.35169 2.85237 6.47114 2.672C6.59058 2.49164 6.65468 2.28029 6.65555 2.06396V1.94967C6.65555 1.59308 6.7972 1.25109 7.04935 0.998944C7.3015 0.746795 7.64349 0.605139 8.00008 0.605139C8.35667 0.605139 8.69866 0.746795 8.95081 0.998944C9.20296 1.25109 9.34462 1.59308 9.34462 1.94967V2.01018C9.34548 2.2265 9.40958 2.43786 9.52902 2.61822C9.64847 2.79858 9.81805 2.94008 10.0169 3.0253C10.2196 3.11479 10.4446 3.14149 10.6627 3.10194C10.8807 3.0624 11.082 2.95844 11.2404 2.80345L11.2807 2.76312C11.4056 2.63811 11.5539 2.53894 11.7171 2.47127C11.8804 2.40361 12.0553 2.36878 12.232 2.36878C12.4087 2.36878 12.5837 2.40361 12.7469 2.47127C12.9101 2.53894 13.0584 2.63811 13.1833 2.76312C13.3083 2.88799 13.4074 3.03628 13.4751 3.1995C13.5428 3.36272 13.5776 3.53768 13.5776 3.71438C13.5776 3.89107 13.5428 4.06603 13.4751 4.22925C13.4074 4.39248 13.3083 4.54076 13.1833 4.66563L13.1429 4.70597C12.9879 4.86441 12.884 5.06564 12.8444 5.28373C12.8049 5.50181 12.8316 5.72673 12.9211 5.9295V5.98328C13.0063 6.18212 13.1478 6.35169 13.3282 6.47114C13.5085 6.59058 13.7199 6.65468 13.9362 6.65555H14.0505C14.4071 6.65555 14.7491 6.7972 15.0012 7.04935C15.2534 7.3015 15.395 7.64349 15.395 8.00008C15.395 8.35667 15.2534 8.69866 15.0012 8.95081C14.7491 9.20296 14.4071 9.34462 14.0505 9.34462H13.99C13.7737 9.34548 13.5623 9.40958 13.3819 9.52902C13.2016 9.64847 13.0601 9.81805 12.9749 10.0169V10.0169Z" stroke="#413DFB" stroke-width="1.2" stroke-linecap="round" stroke-linejoin="round"/>
</svg>
