<svg width="15" height="16" viewBox="0 0 15 16" fill="none" xmlns="http://www.w3.org/2000/svg">
<path d="M11.6236 5.1032C11.6236 3.95031 11.1657 2.84464 10.3505 2.02943C9.53524 1.21421 8.42957 0.756231 7.27668 0.756231C6.12379 0.756231 5.01813 1.21421 4.20291 2.02943C3.3877 2.84464 2.92971 3.95031 2.92971 5.1032C2.92971 10.1747 0.756231 11.6236 0.756231 11.6236H13.7971C13.7971 11.6236 11.6236 10.1747 11.6236 5.1032Z" stroke="#FFAA2A" stroke-width="1.5" stroke-linecap="round" stroke-linejoin="round"/>
<path d="M8.53001 14.522C8.40264 14.7416 8.21982 14.9238 7.99985 15.0505C7.77988 15.1772 7.53049 15.2439 7.27664 15.2439C7.02279 15.2439 6.7734 15.1772 6.55343 15.0505C6.33346 14.9238 6.15064 14.7416 6.02326 14.522" stroke="#FFAA2A" stroke-width="1.5" stroke-linecap="round" stroke-linejoin="round"/>
</svg>
