<svg width="41" height="14" viewBox="0 0 41 14" fill="none" xmlns="http://www.w3.org/2000/svg">
<path d="M17.7739 13.0796H14.4284L16.5193 0.229611H19.8651L17.7739 13.0796ZM11.6139 0.229611L8.42446 9.06793L8.04705 7.1647L8.04739 7.16538L6.92168 1.3866C6.92168 1.3866 6.78556 0.229611 5.33468 0.229611H0.0618714L0 0.447192C0 0.447192 1.61243 0.782671 3.49951 1.91595L6.40608 13.0799H9.89184L15.2145 0.229611H11.6139ZM37.9281 13.0796H41L38.3217 0.229267H35.6323C34.3905 0.229267 34.088 1.1869 34.088 1.1869L29.0984 13.0796H32.5859L33.2833 11.1709H37.5363L37.9281 13.0796ZM34.2468 8.53411L36.0046 3.72534L36.9935 8.53411H34.2468ZM29.36 3.31974L29.8374 0.560278C29.8374 0.560278 28.3642 0 26.8284 0C25.1682 0 21.2256 0.725613 21.2256 4.254C21.2256 7.57373 25.8529 7.61498 25.8529 9.35872C25.8529 11.1025 21.7024 10.79 20.3326 9.69042L19.8352 12.5757C19.8352 12.5757 21.3291 13.3013 23.6114 13.3013C25.8945 13.3013 29.3387 12.1192 29.3387 8.9019C29.3387 5.56085 24.6698 5.24978 24.6698 3.79718C24.6701 2.34424 27.9283 2.53088 29.36 3.31974Z" fill="#2566AF"/>
</svg>
