<svg width="28" height="18" viewBox="0 0 28 18" fill="none" xmlns="http://www.w3.org/2000/svg">
<rect width="28" height="17.6471" rx="3.6" fill="#2D2D2D"/>
<path d="M16.3039 8.82375C16.3039 10.7275 15.4007 12.4249 13.998 13.52C15.054 14.3429 16.3629 14.7998 17.7216 14.7998C21.044 14.7998 23.7469 12.119 23.7469 8.82375C23.7469 5.52853 21.044 2.84766 17.7216 2.84766C16.3629 2.84766 15.054 3.30458 14.0001 4.12577C15.4006 5.22256 16.3039 6.91998 16.3039 8.82375Z" fill="#FFCD00"/>
<path d="M16.3037 8.82375C16.3037 6.91998 15.4004 5.22256 13.9978 4.12745C12.9727 3.32701 11.6813 2.84766 10.2784 2.84766C6.95601 2.84766 4.25305 5.52853 4.25305 8.82375C4.25305 12.119 6.95601 14.7998 10.2784 14.7998C11.6813 14.7998 12.9727 14.3205 13.9978 13.52C15.4005 12.4249 16.3037 10.7275 16.3037 8.82375Z" fill="#FF5023"/>
</svg>
