<svg width="16" height="18" viewBox="0 0 16 18" fill="none" xmlns="http://www.w3.org/2000/svg">
<path d="M3.17668 0.765012L0.765012 3.98056V15.235C0.765012 15.6614 0.934402 16.0703 1.23592 16.3719C1.53743 16.6734 1.94638 16.8428 2.37279 16.8428H13.6272C14.0536 16.8428 14.4626 16.6734 14.7641 16.3719C15.0656 16.0703 15.235 15.6614 15.235 15.235V3.98056L12.8233 0.765012H3.17668Z" stroke="#369BFF" stroke-width="1.5" stroke-linecap="round" stroke-linejoin="round"/>
<path d="M0.765012 3.98045H15.235" stroke="#369BFF" stroke-width="1.5" stroke-linecap="round" stroke-linejoin="round"/>
<path d="M11.2159 7.19589C11.2159 8.04871 10.8771 8.8666 10.2741 9.46963C9.67107 10.0727 8.85318 10.4114 8.00036 10.4114C7.14754 10.4114 6.32966 10.0727 5.72662 9.46963C5.12359 8.8666 4.78481 8.04871 4.78481 7.19589" stroke="#369BFF" stroke-width="1.5" stroke-linecap="round" stroke-linejoin="round"/>
</svg>
