<svg width="24" height="24" viewBox="0 0 24 24" fill="none" xmlns="http://www.w3.org/2000/svg">
<path d="M12.9688 0C10.7695 0 8.96875 1.80078 8.96875 4C8.96875 5.48047 9.79688 6.77734 11 7.46875C10.9805 7.64453 10.9688 7.81641 10.9688 8C10.9688 10.75 13.2188 13 15.9688 13C18.7188 13 20.9688 10.75 20.9688 8C20.9688 5.55078 19.1758 3.48047 16.8438 3.0625C16.4219 1.30859 14.8477 0 12.9688 0ZM12.9688 2C13.7812 2 14.4648 2.47266 14.7812 3.15625C13.4727 3.48047 12.3633 4.33594 11.6875 5.46875C11.2578 5.10938 10.9688 4.60938 10.9688 4C10.9688 2.88281 11.8516 2 12.9688 2ZM15.9688 5C17.6367 5 18.9688 6.33203 18.9688 8C18.9688 9.66797 17.6367 11 15.9688 11C14.3008 11 12.9688 9.66797 12.9688 8C12.9688 6.33203 14.3008 5 15.9688 5ZM7.4375 12C4.24219 12 0 13.75 0 13.75L0.75 15.625C0.75 15.625 5.04688 14 7.4375 14C8.40625 14 10.0586 14.5938 11.4062 15.2812C12.0781 15.625 12.6797 15.9844 13.125 16.2812C13.3477 16.4297 13.5352 16.5625 13.6562 16.6562C13.7148 16.7031 13.7578 16.7578 13.7812 16.7812L13.9375 17C14.0156 17.2227 13.9922 17.4727 13.8438 17.6875C13.6523 17.957 13.3125 18.0625 13 17.9688H12.9688L8.625 15.875L7.78125 17.6875L12.2188 19.8125H12.25L12.3125 19.8438C13.4688 20.25 14.7617 19.8477 15.4688 18.8438C15.8672 18.2773 15.9844 17.6133 15.9062 16.9688L20.7188 16.1562C21.25 16.0664 21.7383 16.3984 21.9062 16.9062C22.0859 17.4453 21.832 17.9922 21.3125 18.2188C19.8477 18.8633 17.4922 19.8281 15.375 20.625C14.3164 21.0234 13.3047 21.375 12.5312 21.625C12.1445 21.75 11.8086 21.8438 11.5625 21.9062C11.3164 21.9688 11.1172 22 11.2188 22C11.2812 22 10.8789 21.9102 10.4062 21.6562C9.93359 21.4023 9.33984 21.0312 8.75 20.6562C8.16016 20.2812 7.55078 19.9023 6.96875 19.5938C6.38672 19.2852 5.86328 19 5.15625 19C3.51953 19 2.0625 19.625 2.0625 19.625L2.84375 21.4688C2.84375 21.4688 4.06641 21 5.15625 21C5.12891 21 5.55469 21.0898 6.03125 21.3438C6.50781 21.5977 7.09766 21.9688 7.6875 22.3438C8.27734 22.7188 8.86719 23.0977 9.4375 23.4062C10.0078 23.7148 10.5078 24 11.2188 24C11.5586 24 11.7539 23.9258 12.0625 23.8438C12.3711 23.7617 12.7461 23.6641 13.1562 23.5312C13.9766 23.2656 14.9844 22.9062 16.0625 22.5C18.2148 21.6914 20.6016 20.7344 22.125 20.0625C23.5703 19.4258 24.3125 17.7461 23.8125 16.25C23.3359 14.8203 21.8633 13.9414 20.375 14.1875L14.9062 15.0938C14.9023 15.0898 14.8828 15.0977 14.875 15.0938C14.8438 15.0703 14.8125 15.0234 14.7812 15L14.5 14.7812V14.8125C14.4141 14.75 14.3516 14.6914 14.25 14.625C13.7305 14.2812 13.0547 13.8789 12.3125 13.5C10.8242 12.7422 9.07812 12 7.4375 12Z" fill="#FF7622"/>
</svg>
