<svg width="24" height="24" viewBox="0 0 24 24" fill="none" xmlns="http://www.w3.org/2000/svg">
<g clip-path="url(#clip0_73_1226)">
<path d="M16.8793 8.50761C16.939 8.58718 17.0278 8.63978 17.1263 8.65384C17.2248 8.66791 17.3248 8.64229 17.4043 8.58261C17.4839 8.52294 17.5365 8.4341 17.5506 8.33565C17.5646 8.23719 17.539 8.13718 17.4793 8.05761C17.383 7.92927 17.2808 7.80261 17.1755 7.68121C17.1433 7.64359 17.1041 7.6127 17.0599 7.59033C17.0158 7.56795 16.9677 7.55454 16.9183 7.55085C16.869 7.54716 16.8194 7.55327 16.7724 7.56884C16.7255 7.5844 16.682 7.60911 16.6447 7.64153C16.6073 7.67396 16.5767 7.71346 16.5546 7.75776C16.5326 7.80206 16.5195 7.85028 16.5162 7.89965C16.5129 7.94903 16.5194 7.99856 16.5353 8.04542C16.5512 8.09227 16.5763 8.13551 16.609 8.17264C16.7027 8.28078 16.7936 8.39347 16.8793 8.50761Z" fill="#FB6D3A"/>
<path d="M17.8807 14.5886C17.9267 14.6064 17.9757 14.6149 18.0249 14.6136C18.0742 14.6124 18.1227 14.6015 18.1677 14.5815C18.2128 14.5615 18.2534 14.5328 18.2873 14.4971C18.3212 14.4613 18.3478 14.4193 18.3654 14.3733C18.9068 12.9653 18.9475 11.414 18.4808 9.9795C18.45 9.88493 18.3829 9.80649 18.2942 9.76142C18.2055 9.71635 18.1026 9.70834 18.008 9.73917C17.9135 9.76999 17.835 9.83712 17.79 9.92579C17.7449 10.0144 17.7369 10.1174 17.7677 10.212C18.1811 11.4826 18.1449 12.8568 17.6654 14.104C17.6297 14.1968 17.6323 14.3 17.6727 14.3909C17.7131 14.4818 17.7879 14.5529 17.8807 14.5886Z" fill="#FB6D3A"/>
<path d="M6.39528 13.7066C6.46493 13.7321 6.54057 13.7364 6.61265 13.7189C6.68472 13.7014 6.74999 13.6629 6.8002 13.6083C6.8504 13.5537 6.88329 13.4855 6.89471 13.4122C6.90612 13.3389 6.89555 13.2639 6.86432 13.1966C6.8331 13.1293 6.78262 13.0728 6.71928 13.0342C6.65594 12.9957 6.58258 12.9767 6.50848 12.9798C6.43437 12.9829 6.36285 13.0079 6.30296 13.0517C6.24307 13.0954 6.1975 13.156 6.17201 13.2256C6.13783 13.319 6.14215 13.4222 6.18402 13.5124C6.22589 13.6026 6.30188 13.6725 6.39528 13.7066Z" fill="#FB6D3A"/>
<path d="M4.97336 12.0787C5.04301 12.1042 5.11866 12.1085 5.19073 12.091C5.26281 12.0735 5.32808 12.035 5.37829 11.9804C5.42851 11.9258 5.4614 11.8576 5.47282 11.7843C5.48424 11.711 5.47368 11.636 5.44246 11.5687C5.41124 11.5014 5.36077 11.4449 5.29743 11.4063C5.23409 11.3677 5.16073 11.3488 5.08662 11.3519C5.01252 11.355 4.941 11.38 4.8811 11.4237C4.82121 11.4675 4.77564 11.528 4.75014 11.5977C4.71596 11.6911 4.72027 11.7942 4.76214 11.8844C4.804 11.9746 4.87998 12.0445 4.97336 12.0787Z" fill="#FB6D3A"/>
<path d="M5.39243 13.2637C5.41793 13.194 5.4222 13.1184 5.40471 13.0463C5.38721 12.9742 5.34874 12.909 5.29415 12.8588C5.23957 12.8086 5.17132 12.7757 5.09803 12.7642C5.02475 12.7528 4.94973 12.7634 4.88245 12.7946C4.81517 12.8258 4.75866 12.8763 4.72006 12.9396C4.68147 13.003 4.66252 13.0763 4.66561 13.1504C4.6687 13.2245 4.6937 13.296 4.73744 13.3559C4.78118 13.4158 4.8417 13.4614 4.91135 13.4869C4.95759 13.5038 5.00672 13.5115 5.05593 13.5094C5.10513 13.5074 5.15345 13.4957 5.19812 13.4749C5.24279 13.4542 5.28295 13.4249 5.31629 13.3886C5.34963 13.3524 5.3755 13.3099 5.39243 13.2637Z" fill="#FB6D3A"/>
<path d="M5.73752 14.3558C5.66787 14.3304 5.59223 14.3261 5.52016 14.3436C5.44809 14.3611 5.38282 14.3996 5.33262 14.4542C5.28241 14.5088 5.24953 14.577 5.23811 14.6503C5.2267 14.7236 5.23727 14.7986 5.26849 14.8659C5.29971 14.9332 5.35018 14.9897 5.41352 15.0282C5.47685 15.0668 5.55021 15.0858 5.62431 15.0827C5.69841 15.0796 5.76993 15.0546 5.82982 15.0108C5.88972 14.9671 5.93529 14.9066 5.96079 14.8369C5.97772 14.7907 5.98538 14.7416 5.98332 14.6923C5.98126 14.6431 5.96953 14.5948 5.9488 14.5501C5.92807 14.5055 5.89874 14.4653 5.86249 14.432C5.82624 14.3986 5.78377 14.3728 5.73752 14.3558Z" fill="#FB6D3A"/>
<path d="M6.75953 15.9281C6.68988 15.9026 6.61424 15.8984 6.54217 15.9159C6.47009 15.9333 6.40482 15.9718 6.35461 16.0264C6.30441 16.081 6.27151 16.1492 6.26009 16.2225C6.24867 16.2958 6.25923 16.3708 6.29045 16.4381C6.32167 16.5054 6.37213 16.5619 6.43546 16.6005C6.4988 16.6391 6.57215 16.658 6.64625 16.6549C6.72036 16.6519 6.79188 16.6269 6.85177 16.5831C6.91167 16.5394 6.95725 16.4789 6.98275 16.4092C6.99968 16.363 7.00734 16.3138 7.00528 16.2646C7.00323 16.2154 6.9915 16.1671 6.97078 16.1224C6.95005 16.0778 6.92073 16.0376 6.88448 16.0043C6.84823 15.9709 6.80578 15.9451 6.75953 15.9281Z" fill="#FB6D3A"/>
<path d="M7.27508 14.519C7.20544 14.4935 7.12979 14.4892 7.05769 14.5066C6.9856 14.5241 6.92031 14.5626 6.87007 14.6171C6.81984 14.6717 6.78692 14.74 6.77548 14.8133C6.76404 14.8866 6.7746 14.9616 6.80581 15.0289C6.83702 15.0962 6.88749 15.1527 6.95083 15.1913C7.01417 15.2299 7.08754 15.2489 7.16165 15.2458C7.23577 15.2427 7.3073 15.2177 7.3672 15.1739C7.4271 15.1302 7.47267 15.0696 7.49816 15C7.53232 14.9066 7.52801 14.8035 7.48618 14.7133C7.44435 14.6231 7.36842 14.5532 7.27508 14.519Z" fill="#FB6D3A"/>
<path d="M22.8817 15.375H19.5462C20.0446 14.3198 20.3019 13.167 20.2994 12C20.2994 7.8 17.0014 4.32337 12.7525 3.81431V1.125C12.7525 1.02554 12.713 0.930161 12.6427 0.859835C12.5724 0.789509 12.477 0.75 12.3775 0.75H10.9244C10.8249 0.75 10.7296 0.789509 10.6592 0.859835C10.5889 0.930161 10.5494 1.02554 10.5494 1.125V2.295L9.48064 2.43211L7.30822 2.709C5.65266 2.91696 4.14245 3.7594 3.09575 5.05884L0.833378 7.85691C0.783898 7.91811 0.754929 7.99333 0.750575 8.07191C0.74622 8.1505 0.7667 8.22846 0.809114 8.29476C0.851529 8.36105 0.913727 8.41232 0.986899 8.44131C1.06007 8.47029 1.14051 8.47552 1.21682 8.45625L4.33714 7.66814C3.42924 9.06258 2.98175 10.7067 3.05774 12.369C3.13373 14.0312 3.72936 15.6277 4.76071 16.9335C5.83492 18.3051 7.30146 19.317 8.96507 19.8344C9.26724 20.2858 9.61718 20.7033 10.0088 21.0797C11.4703 22.4859 13.418 23.2605 15.4932 23.2605C17.5684 23.2605 19.5163 22.486 20.9776 21.0797C21.6994 20.3926 22.2737 19.5656 22.6655 18.6494C23.0574 17.7331 23.2585 16.7466 23.2567 15.75C23.2567 15.6505 23.2172 15.5552 23.1469 15.4848C23.0765 15.4145 22.9811 15.375 22.8817 15.375ZM11.7026 19.4197C10.7948 18.552 10.2424 17.3776 10.1528 16.125H14.6743L12.1969 19.8413C12.0237 19.711 11.8586 19.5701 11.7026 19.4197ZM15.375 16.426L17.9852 20.3413C17.1811 20.7414 16.2925 20.9419 15.3945 20.9258C14.4965 20.9097 13.6156 20.6775 12.8264 20.2489L15.375 16.426ZM18.63 19.9566L16.0757 16.125H20.8338C20.7442 17.3776 20.1918 18.552 19.284 19.4197C19.0806 19.6157 18.8619 19.7952 18.63 19.9566ZM11.2994 1.5H12.0025V3.75H11.2994V1.5ZM10.5494 3.82031C10.0574 3.88173 9.57145 3.98418 9.09655 4.12659L9.7453 3.15431L10.5496 3.05119L10.5494 3.82031ZM8.24136 4.05703L7.97778 4.45214C7.94628 4.49934 7.91371 4.54589 7.8808 4.59234C7.44933 4.79521 7.03522 5.03312 6.64264 5.30367L6.66608 5.04844L8.24136 4.05703ZM7.40296 3.453L7.89196 3.39066L5.42952 4.94063C5.40139 4.92619 4.48011 4.719 4.48011 4.719C5.31403 4.0274 6.32803 3.5882 7.40296 3.453ZM3.67878 5.53036C3.73007 5.46695 3.7826 5.40488 3.83638 5.34413C3.84332 5.34609 3.85016 5.34825 3.85728 5.34984L4.54053 5.49984L2.83621 6.57263L3.67878 5.53036ZM4.62097 6.82294L3.3275 7.14966L5.86677 5.5515L5.83119 5.93766C5.56428 6.17315 5.31246 6.42522 5.07721 6.69234C4.95102 6.73214 4.73539 6.79406 4.62088 6.82294H4.62097ZM5.35175 16.4719C4.34551 15.1986 3.79853 13.6229 3.79939 12C3.79939 7.8645 7.33208 4.5 11.6744 4.5C16.0167 4.5 19.5494 7.8645 19.5494 12C19.5519 13.1758 19.2638 14.334 18.7107 15.3716C18.71 15.3727 18.7097 15.3739 18.7091 15.375H8.10467C8.00522 15.375 7.90984 15.4145 7.83951 15.4848C7.76918 15.5552 7.72967 15.6505 7.72967 15.75C7.72754 16.8096 7.95509 17.8571 8.39666 18.8203C7.20381 18.3002 6.15787 17.4935 5.35175 16.4719ZM20.4576 20.5394C19.1367 21.8106 17.3736 22.5107 15.4933 22.5107C13.6129 22.5107 11.85 21.8106 10.5289 20.5394C9.31203 19.3812 8.5829 17.8024 8.49027 16.125H9.40152C9.49136 17.5816 10.1271 18.9508 11.182 19.9594C12.33 21.0667 13.8611 21.6766 15.4933 21.6766C17.1254 21.6766 18.6566 21.0668 19.8047 19.9594C20.8595 18.9508 21.4953 17.5816 21.5851 16.125H22.4963C22.4036 17.8024 21.6745 19.3812 20.4576 20.5394Z" fill="#FB6D3A"/>
</g>
<defs>
<clipPath id="clip0_73_1226">
<rect width="24" height="24" fill="white"/>
</clipPath>
</defs>
</svg>
